<svg width="40" height="45" viewBox="0 0 40 45" xmlns="http://www.w3.org/2000/svg">
<path d="M39.9687 7.51047C39.9687 7.12551 39.9395 6.74054 39.8861 6.36045C39.6723 4.85956 38.9921 3.58771 37.9086 2.54489C36.6163 1.30715 35.0567 0.702898 33.2687 0.702898C24.5136 0.702898 15.7584 0.698025 7.0033 0.712644C6.45915 0.712644 5.90527 0.785739 5.37083 0.90269C3.91326 1.22431 2.72777 2.01373 1.79978 3.17351C0.794058 4.43074 0.351929 5.88777 0.351929 7.49098C0.356787 17.6024 0.351929 19.1472 0.356787 29.2586C0.356787 29.6729 0.366505 30.0919 0.385939 30.5061C0.444242 31.7146 0.818351 32.8257 1.50827 33.81C2.8055 35.6569 4.60317 36.6071 6.85755 36.6754C7.24623 36.6851 7.63492 36.6754 8.03818 36.6754C7.86327 35.501 7.95073 34.3461 8.03818 33.1717C7.59605 33.1717 7.17821 33.1814 6.76524 33.1668C6.16277 33.1522 5.6089 32.9573 5.12304 32.6064C4.20477 31.9485 3.79665 31.0373 3.79665 29.9116C3.80151 19.5565 3.79665 17.7681 3.79665 7.41301C3.79665 7.31068 3.79665 7.20835 3.80151 7.10601C3.83552 6.4043 4.07845 5.77569 4.54487 5.25428C5.19592 4.51845 6.02673 4.19196 6.99845 4.19196C15.7633 4.19196 24.5233 4.19196 33.2881 4.19196C33.3707 4.19196 33.4533 4.19196 33.5359 4.19684C34.4056 4.26018 35.1441 4.60617 35.7077 5.27377C36.2227 5.87802 36.4365 6.59435 36.4365 7.38865C36.4268 17.7827 36.4268 19.6052 36.4268 29.9896C36.4268 30.0871 36.4268 30.1845 36.4219 30.2771C36.3539 31.8608 35.0615 33.1619 33.4873 33.2253C33.0792 33.2399 32.6711 33.2253 32.2776 33.2253C32.297 33.8149 32.3262 34.385 32.3359 34.9503C32.3456 35.5156 32.3359 36.0857 32.3359 36.6705C32.6177 36.6705 32.9286 36.6656 33.2396 36.6705C34.1578 36.6851 35.0421 36.5243 35.8972 36.1734C37.1701 35.6472 38.1759 34.7944 38.9241 33.6443C39.6577 32.5187 39.9687 31.2663 39.9687 29.9263C39.9687 19.6052 39.9687 17.8412 39.9687 7.51047ZM20.1506 25.8622C15.1365 25.8524 11.0456 29.9409 11.0408 34.9747C11.0359 40.0036 15.1171 44.1018 20.136 44.1018C25.1403 44.1018 29.2361 39.9695 29.2312 34.9211C29.2264 29.9165 25.1792 25.8719 20.1506 25.8622ZM24.8051 33.4738C24.7371 33.698 24.6059 33.927 24.4456 34.0927C22.9831 35.5789 21.5061 37.0554 20.034 38.5271C19.2906 39.2678 18.3723 39.2629 17.6241 38.5222C16.9391 37.84 16.2589 37.1578 15.5787 36.4707C15.0637 35.9542 14.9228 35.2573 15.1948 34.6336C15.5398 33.849 16.4824 33.4884 17.2743 33.8539C17.4735 33.9465 17.6581 34.0878 17.8136 34.2389C18.1537 34.5653 18.4744 34.9113 18.8096 35.2622C18.8922 35.1842 18.9408 35.1404 18.9894 35.0916C20.0097 34.0732 21.0348 33.0645 22.0406 32.0363C22.5993 31.4612 23.4738 31.4174 24.0277 31.7488C24.7031 32.1483 25.014 32.7916 24.8051 33.4738ZM29.1244 9.66434C26.1315 9.66434 23.1435 9.66434 20.1506 9.66434C17.1966 9.66434 14.2474 9.66434 11.2934 9.66434C11.1282 9.66434 10.963 9.67408 10.7978 9.69357C9.58806 9.83489 8.96616 11.1311 9.4666 12.1788C9.8067 12.8854 10.4043 13.168 11.1622 13.168C17.114 13.168 23.0609 13.168 29.0126 13.168C29.1146 13.168 29.2167 13.168 29.3187 13.1583C30.7568 13.017 31.2281 11.5307 30.7325 10.5805C30.4022 9.93722 29.8337 9.66434 29.1244 9.66434ZM29.1486 18.2457C23.1969 18.2457 17.25 18.2457 11.2983 18.2457C11.1477 18.2457 10.9922 18.2554 10.8416 18.27C9.62207 18.3821 8.96131 19.6881 9.47146 20.7553C9.79698 21.4375 10.3703 21.7396 11.1137 21.7396C14.1114 21.7396 17.1091 21.7396 20.1069 21.7396H28.3324C28.6385 21.7396 28.9446 21.7494 29.2507 21.7347C30.3681 21.686 31.1212 20.7114 30.8832 19.5468C30.7131 18.7427 30.0183 18.2457 29.1486 18.2457Z" />
</svg>
