<svg width="45" height="34" viewBox="0 0 45 34" xmlns="http://www.w3.org/2000/svg">
<path d="M44.5626 16.3319C44.5626 13.0564 44.5626 9.7765 44.5626 6.50095C44.5626 6.13796 44.5411 5.80954 44.4937 5.49841C44.2998 4.18041 43.7009 3.03959 42.71 2.10187C41.551 1.00426 40.1119 0.446808 38.4316 0.446808C25.8896 0.446808 15.6698 0.446808 6.26432 0.446808C5.91534 0.446808 5.56204 0.468414 5.22167 0.511627C3.85156 0.684479 2.66241 1.28082 1.68438 2.28768C0.581407 3.42418 0.0213013 4.83293 0.0213013 6.4707C0.0213013 11.9415 0.0213013 17.4122 0.0213013 22.8787V27.926C0.0213013 28.7729 0.172099 29.5637 0.473694 30.2854C0.939013 31.4046 1.69731 32.3078 2.72704 32.9819C3.72661 33.6301 4.88991 33.9628 6.18246 33.9628H6.19108C10.1377 33.9585 14.1489 33.9585 18.0265 33.9585C19.444 33.9585 20.8615 33.9585 22.279 33.9585H38.4187C39.3019 33.9585 40.0861 33.8159 40.8185 33.5177C41.956 33.0553 42.8823 32.3078 43.5674 31.2966C44.2266 30.32 44.5626 29.1748 44.5626 27.8871C44.5626 24.0411 44.5626 20.1865 44.5626 16.3319ZM40.4049 29.7668C39.9267 30.2595 39.3623 30.5187 38.6772 30.5533C38.5953 30.5576 38.5092 30.5576 38.4273 30.5576H30.896C22.7831 30.5576 14.3988 30.5576 6.14799 30.562C5.39401 30.562 4.7822 30.3372 4.2781 29.8705C3.78693 29.4168 3.52842 28.8637 3.48965 28.1809C3.48534 28.1031 3.48534 28.021 3.48534 27.9389V22.4379C3.48534 17.2091 3.48534 11.8032 3.48103 6.48366C3.48103 5.74472 3.70938 5.14406 4.1747 4.65143C4.62709 4.17609 5.17427 3.91681 5.85071 3.86496C5.91964 3.86064 5.99289 3.85631 6.07044 3.85631H6.13076H6.1997C10.9391 3.85631 15.6741 3.85631 20.4135 3.85631H22.3092C23.6405 3.85631 24.9719 3.85631 26.3032 3.85631C30.2799 3.85631 34.3902 3.85631 38.4316 3.85199H38.4359C39.1813 3.85199 39.7888 4.0767 40.2972 4.53476C40.7711 4.96689 41.034 5.50705 41.0986 6.18117C41.1072 6.25032 41.1029 6.33242 41.1029 6.41885V12.2353C41.1029 17.382 41.1029 22.7058 41.1072 27.9432C41.1029 28.6865 40.8745 29.2828 40.4049 29.7668ZM33.7871 20.018L31.0081 17.2048L32.7099 15.4849C34.89 13.2811 37.0701 11.0729 39.2502 8.86902C39.3493 8.76963 39.4312 8.67456 39.5044 8.5795C39.7974 8.19922 39.9051 7.69795 39.7888 7.20532C39.6768 6.71702 39.3623 6.30649 38.9314 6.08611C38.1903 5.71015 37.4148 5.84843 36.803 6.4707L33.7095 9.59932C30.2368 13.1125 26.6436 16.7468 23.1106 20.3161C22.8564 20.5754 22.5806 20.8131 22.292 21.0681C22.279 21.081 22.2661 21.0897 22.2489 21.1026C17.4449 16.2412 12.6452 11.3797 7.84124 6.51824C7.75076 6.42749 7.65166 6.33242 7.53964 6.24167C7.08725 5.89165 6.49267 5.78361 5.9455 5.96079C5.39831 6.13364 4.98039 6.56145 4.82528 7.10161C4.70034 7.54238 4.6831 8.20354 5.32507 8.84742L8.01358 11.5655C9.87054 13.441 11.7275 15.3207 13.5845 17.1962L11.0037 19.8106C9.28459 21.5477 7.5698 23.2849 5.85502 25.0264C5.79901 25.0825 5.7473 25.1344 5.69129 25.1906C5.51464 25.3678 5.33369 25.5449 5.16566 25.7437C4.60986 26.3962 4.6314 27.3339 5.20874 27.9649C5.77746 28.5828 6.71241 28.6995 7.43193 28.2371C7.58703 28.1377 7.71198 28.0167 7.81539 27.913C9.58618 26.1197 11.357 24.3306 13.1278 22.5373L15.9585 19.6723C16.204 19.8883 16.4367 20.0958 16.6564 20.3161C17.5354 21.1977 18.4272 22.1008 19.2889 22.9738C19.8577 23.5528 20.4307 24.1319 21.0037 24.7066C21.3699 25.0739 21.831 25.277 22.3006 25.277C22.7745 25.277 23.2355 25.0696 23.6061 24.6979L23.8646 24.4387L24.0584 24.6591L23.9335 24.3695L25.4889 22.7923C26.5272 21.7422 27.5656 20.6921 28.5996 19.6377L33.6449 24.7368C33.9465 25.0393 34.2481 25.3461 34.5497 25.6486C35.295 26.4049 36.0662 27.1827 36.8289 27.9519C37.1951 28.3192 37.6604 28.518 38.1386 28.518C38.2119 28.518 38.2851 28.5137 38.3627 28.505C38.8926 28.4359 39.3536 28.1161 39.6294 27.6321C40.0128 26.9493 39.8879 26.1802 39.2847 25.5709C37.4493 23.7257 35.6182 21.8718 33.7871 20.018Z" />
</svg>
