<svg width="44" height="49" viewBox="0 0 44 49" xmlns="http://www.w3.org/2000/svg">
<path d="M40.6823 2.73493C38.8741 1.07924 36.7291 0.224162 34.2801 0.207823C30.2346 0.180591 26.1891 0.202376 22.149 0.202376C18.2012 0.202376 14.248 0.207823 10.3002 0.202376C7.93809 0.191484 5.8203 0.88317 4.00118 2.39181C1.69876 4.30348 0.422661 6.77612 0.406371 9.78251C0.362929 16.2255 0.38465 22.674 0.40094 29.1225C0.40094 29.8142 0.476963 30.5168 0.618149 31.1921C1.07429 33.3979 2.19834 35.2224 3.91429 36.6657C5.15238 37.7114 6.58053 38.4031 8.17702 38.7244C8.41052 38.7734 8.49197 38.8497 8.49197 39.1056C8.48111 41.6927 8.48111 44.2797 8.49197 46.8667C8.49197 47.1662 8.54627 47.493 8.66574 47.7653C9.13274 48.8328 10.3274 48.9254 11.1039 48.3535C12.4506 47.3623 13.8082 46.3874 15.1494 45.3853C17.4899 43.637 19.9769 42.1502 22.692 41.0718C25.6515 39.8954 28.7141 39.171 31.8908 38.9586C32.9171 38.8878 33.9489 38.9096 34.9697 38.8224C37.2124 38.6373 39.1782 37.7658 40.8127 36.2136C42.887 34.2421 43.9133 31.8021 43.9187 28.9428C43.9296 22.6686 43.9296 16.3944 43.9187 10.1202C43.9133 7.19549 42.8436 4.71195 40.6823 2.73493ZM40.6986 28.9809C40.6986 31.0233 39.9547 32.7334 38.4125 34.0732C37.3047 35.0372 36.0015 35.5546 34.5299 35.6363C33.1452 35.7126 31.755 35.7507 30.3758 35.8814C28.1602 36.0884 25.999 36.584 23.8812 37.2539C20.1887 38.4249 16.8002 40.184 13.6778 42.4769C13.124 42.88 12.5646 43.283 12.0108 43.6806C11.9456 43.7296 11.875 43.7677 11.7664 43.8385V43.5226C11.7664 41.4748 11.7664 39.4324 11.7664 37.3846C11.7664 36.5295 11.3591 35.9577 10.5826 35.718C10.3871 35.6581 10.1808 35.6472 9.97442 35.6363C7.53625 35.5111 5.7117 34.3619 4.47904 32.2759C3.88714 31.2738 3.65907 30.1519 3.65907 28.9918C3.65907 22.7121 3.65364 16.4271 3.65907 10.1474C3.65907 8.38279 4.21839 6.81969 5.44562 5.53435C6.67285 4.24901 8.17702 3.54643 9.96356 3.49742C10.7672 3.47563 11.5763 3.48652 12.38 3.48652C19.5859 3.48652 26.7918 3.49197 33.9977 3.48108C35.3281 3.47563 36.5662 3.78607 37.6794 4.51044C39.2759 5.54524 40.2696 7.01031 40.5954 8.9002C40.6823 9.39581 40.704 9.90777 40.704 10.4143C40.704 16.6068 40.6986 22.7938 40.6986 28.9809ZM25.7384 11.7813C24.4188 10.7084 22.8984 10.3544 21.2313 10.594C19.8954 10.7901 18.7605 11.3619 17.8917 12.424C17.1206 13.3608 16.8165 14.4664 16.8165 15.6537C16.8165 16.3236 17.1586 16.841 17.7777 17.1133C18.3044 17.3529 18.8311 17.2985 19.3144 16.9662C19.8248 16.6177 20.0149 16.1057 20.0366 15.5066C20.0583 14.913 20.3136 14.4391 20.8457 14.1668C21.1553 14.0143 21.4974 13.8836 21.834 13.8455C22.6649 13.7529 23.4251 13.9326 23.9627 14.6406C24.2722 15.0491 24.2559 15.5393 24.2505 16.024C24.245 16.7266 23.9247 17.2603 23.3382 17.6252C22.8658 17.9139 22.3716 18.1753 21.8829 18.4422C21.2584 18.7799 20.7914 19.2592 20.6285 19.9617C20.5308 20.3757 20.5362 20.8114 20.4982 21.2362C20.5145 21.2362 20.5308 21.2362 20.5416 21.2416C20.5416 21.5357 20.5253 21.8244 20.5471 22.1185C20.5959 22.8428 21.215 23.4583 21.9698 23.5509C22.6757 23.638 23.4468 23.1696 23.626 22.4834C23.7237 22.1185 23.7129 21.7209 23.7346 21.3397C23.74 21.2035 23.778 21.1218 23.9029 21.0619C24.1582 20.9421 24.4134 20.8168 24.6632 20.6806C26.0913 19.9236 26.9982 18.7635 27.3457 17.1678C27.4977 16.4652 27.5086 15.7517 27.438 15.0437C27.3077 13.7311 26.7647 12.6201 25.7384 11.7813ZM22.1707 25.3972C20.9978 25.3917 20.1887 26.2196 20.1778 27.4396C20.167 28.6214 20.9706 29.482 22.111 29.4928C23.2839 29.5037 24.0984 28.6813 24.1147 27.4614C24.1256 26.2686 23.311 25.4026 22.1707 25.3972Z" />
</svg>
