<svg width="45" height="36" viewBox="0 0 45 36" xmlns="http://www.w3.org/2000/svg">
<path d="M37.9462 16.3911C37.8436 15.3698 36.8723 14.7132 35.9097 15.0179C35.2251 15.2325 34.7972 15.8332 34.7972 16.6014C34.793 18.0089 34.7972 19.4164 34.7972 20.824C34.7972 24.1153 34.7972 27.411 34.7972 30.7067C34.7972 31.1015 34.7031 31.4705 34.455 31.7838C34.1041 32.2215 33.642 32.3974 33.0858 32.3931C31.6226 32.3846 30.155 32.3889 28.6918 32.3889C28.6276 32.3889 28.5591 32.3846 28.4736 32.3803V32.1099C28.4736 29.621 28.4778 27.1364 28.4693 24.6474C28.4693 24.2012 28.4351 23.7549 28.358 23.3172C28.1484 22.107 27.6136 21.0557 26.7793 20.1545C25.7011 18.9959 24.3747 18.3265 22.8088 18.1591C21.3198 18.0003 19.9336 18.3393 18.68 19.1675C17.559 19.9099 16.7547 20.9141 16.2626 22.1714C15.9546 22.961 15.8305 23.7849 15.8305 24.626C15.8305 27.1192 15.8305 29.6124 15.8305 32.1056V32.376C15.7663 32.3803 15.7364 32.3889 15.7064 32.3889C14.1875 32.3889 12.6644 32.3974 11.1455 32.3846C10.9016 32.3803 10.6363 32.3288 10.4139 32.2258C9.77636 31.9254 9.51109 31.3761 9.50681 30.6895C9.50681 26.0249 9.50681 21.3604 9.50681 16.6958C9.50681 16.5456 9.50681 16.3954 9.47686 16.2495C9.36134 15.6573 9.01906 15.2239 8.44574 15.0436C7.32476 14.6918 6.34926 15.4299 6.34926 16.6185C6.34498 21.326 6.34926 26.0335 6.34926 30.7453C6.34926 31.4147 6.44766 32.0756 6.73432 32.6807C7.61142 34.5431 9.08752 35.5515 11.1455 35.5601C18.4875 35.5815 25.8337 35.5687 33.1757 35.5687C34.3565 35.5687 35.4133 35.1996 36.3076 34.4186C37.4328 33.4359 37.9676 32.1829 37.9676 30.6895C37.9634 26.0164 37.9676 21.3475 37.9676 16.6743C37.9548 16.5799 37.9548 16.4855 37.9462 16.3911ZM25.3074 32.3803H18.9966C18.9923 32.3159 18.988 32.2515 18.988 32.1872C18.988 29.6382 18.9838 27.0892 18.988 24.5359C18.9923 22.9696 19.9422 21.7423 21.4311 21.3732C23.1938 20.9355 25.0293 22.1886 25.2647 23.9866C25.2903 24.1754 25.3032 24.3685 25.3032 24.5616C25.3074 27.0977 25.3032 29.6382 25.3032 32.1743V32.3803H25.3074ZM44.2442 13.0439C44.1416 12.4818 43.7736 12.1256 43.2859 11.8638C36.5386 8.22486 29.7913 4.5816 23.0484 0.92975C22.4323 0.595033 21.8504 0.599324 21.2386 0.934041C16.8017 3.33714 12.3606 5.73165 7.92376 8.13046C5.59623 9.38779 3.26871 10.6451 0.941186 11.9025C0.367863 12.2114 0.0426939 12.6792 0.0213013 13.2156C0.0213013 13.9966 0.410648 14.5888 1.01392 14.8248C1.51879 15.0222 2.00654 14.945 2.47718 14.6875C8.98055 11.1729 15.4796 7.65842 21.983 4.1396C22.0985 4.07523 22.1841 4.06665 22.3039 4.13102C27.2499 6.80875 32.1959 9.47791 37.1419 12.1514C38.7207 13.0053 40.2952 13.8593 41.8739 14.7089C42.4858 15.0394 43.089 15.0265 43.6495 14.6059C44.1672 14.2197 44.3598 13.679 44.2442 13.0439Z"/>
</svg>
