<svg width="38" height="32" viewBox="0 0 38 32" xmlns="http://www.w3.org/2000/svg">
<path fill-rule="evenodd" clip-rule="evenodd" d="M21.8986 2.88133C26.1428 2.88133 26.6461 2.89929 28.3238 2.97474C29.8729 3.04659 30.7153 3.30527 31.2758 3.52442C32.0182 3.81543 32.5465 4.16032 33.1034 4.72078C33.6602 5.28124 34.0029 5.81296 34.292 6.56023C34.5097 7.12428 34.7703 7.97216 34.8381 9.53138C34.9131 11.2199 34.9309 11.7229 34.9309 15.9982C34.9309 20.2699 34.9131 20.7765 34.8381 22.4614C34.7667 24.0207 34.5097 24.8685 34.292 25.4326C34.0029 26.1799 33.6602 26.7116 33.1034 27.272C32.5465 27.8325 32.0182 28.1774 31.2758 28.4684C30.7153 28.6875 29.8729 28.9498 28.3238 29.0181C26.6461 29.0971 26.1464 29.1115 21.8986 29.1115C17.6545 29.1115 17.1512 29.0971 15.4735 29.0181C13.9243 28.9462 13.0819 28.6875 12.5215 28.4684C11.7791 28.1774 11.2508 27.8325 10.6939 27.272C10.1371 26.7116 9.79441 26.1799 9.50528 25.4326C9.28754 24.8685 9.02697 24.0207 8.95914 22.4614C8.88418 20.7729 8.86634 20.2699 8.86634 15.9982C8.86634 11.7265 8.88062 11.2199 8.95914 9.53138C9.03053 7.97216 9.28754 7.12428 9.50528 6.56023C9.79441 5.81296 10.1371 5.28124 10.6939 4.72078C11.2508 4.16032 11.7791 3.81543 12.5215 3.52442C13.0819 3.30527 13.9243 3.04659 15.4735 2.97474C17.1512 2.89929 17.6545 2.88133 21.8986 2.88133ZM21.8986 0C17.5831 0 17.0405 0.0179634 15.345 0.0970024C13.6531 0.176041 12.4965 0.445492 11.4864 0.840687C10.4405 1.25025 9.55525 1.79634 8.67001 2.68373C7.78477 3.57472 7.24221 4.4657 6.83528 5.51836C6.44264 6.53508 6.17492 7.69911 6.09639 9.40204C6.01786 11.1086 6.00002 11.6547 6.00002 15.9982C6.00002 20.3418 6.01786 20.8878 6.09639 22.5944C6.17492 24.2973 6.44264 25.4613 6.83528 26.478C7.24221 27.5307 7.78477 28.4217 8.67001 29.3127C9.55525 30.2037 10.4405 30.7497 11.4864 31.1593C12.4965 31.5545 13.6531 31.824 15.345 31.903C17.0405 31.982 17.5831 32 21.8986 32C26.2142 32 26.7568 31.982 28.4523 31.903C30.1442 31.8276 31.3007 31.5545 32.3109 31.1593C33.3568 30.7497 34.242 30.2037 35.1273 29.3127C36.0125 28.4217 36.5551 27.5307 36.962 26.478C37.3546 25.4613 37.6224 24.2973 37.7009 22.5944C37.7794 20.8878 37.7973 20.3418 37.7973 15.9982C37.7973 11.6511 37.7794 11.1086 37.7009 9.40204C37.6224 7.69911 37.3546 6.53508 36.962 5.51836C36.5551 4.4657 36.0125 3.57472 35.1273 2.68373C34.242 1.79275 33.3568 1.24666 32.3109 0.837094C31.3007 0.4419 30.1442 0.172449 28.4523 0.0934097C26.7568 0.0179634 26.2178 0 21.8986 0ZM21.9308 7.81049C17.4189 7.81049 13.7601 11.493 13.7601 16.0341C13.7601 20.5753 17.4189 24.2578 21.9308 24.2578C26.4426 24.2578 30.1014 20.5753 30.1014 16.0341C30.1014 11.493 26.4426 7.81049 21.9308 7.81049ZM21.9308 21.3693C19.0038 21.3693 16.6265 18.9801 16.6265 16.0305C16.6265 13.0809 19.0002 10.6918 21.9308 10.6918C24.8578 10.6918 27.2351 13.0809 27.2351 16.0305C27.2351 18.9801 24.8613 21.3693 21.9308 21.3693ZM32.2467 7.42966C32.2467 8.48232 31.4007 9.33378 30.3548 9.33378C29.309 9.33378 28.463 8.48232 28.463 7.42966C28.463 6.37701 29.309 5.52554 30.3548 5.52554C31.3971 5.52195 32.2467 6.37701 32.2467 7.42966Z" />
</svg>
