<svg width="28" height="28" viewBox="0 0 28 28" fill="none" xmlns="http://www.w3.org/2000/svg">
<path fill-rule="evenodd" clip-rule="evenodd" d="M13.924 4.161C17.1071 4.161 17.4846 4.17447 18.7428 4.23105C19.9047 4.28494 20.5365 4.47895 20.9568 4.64331C21.5137 4.86157 21.9099 5.12024 22.3275 5.54059C22.7451 5.96093 23.0021 6.35972 23.219 6.92018C23.3823 7.34321 23.5777 7.97912 23.6286 9.14854C23.6848 10.415 23.6982 10.7922 23.6982 13.9987C23.6982 17.2024 23.6848 17.5824 23.6286 18.8461C23.575 20.0155 23.3823 20.6514 23.219 21.0744C23.0021 21.6349 22.7451 22.0337 22.3275 22.454C21.9099 22.8744 21.5137 23.133 20.9568 23.3513C20.5365 23.5157 19.9047 23.7124 18.7428 23.7636C17.4846 23.8228 17.1098 23.8336 13.924 23.8336C10.7409 23.8336 10.3634 23.8228 9.10512 23.7636C7.94324 23.7097 7.31144 23.5157 6.89113 23.3513C6.33429 23.133 5.93807 22.8744 5.52044 22.454C5.1028 22.0337 4.8458 21.6349 4.62895 21.0744C4.46564 20.6514 4.27021 20.0155 4.21935 18.8461C4.16313 17.5797 4.14974 17.2024 4.14974 13.9987C4.14974 10.7949 4.16045 10.415 4.21935 9.14854C4.27289 7.97912 4.46564 7.34321 4.62895 6.92018C4.8458 6.35972 5.1028 5.96093 5.52044 5.54059C5.93807 5.12024 6.33429 4.86157 6.89113 4.64331C7.31144 4.47895 7.94324 4.28494 9.10512 4.23105C10.3634 4.17447 10.7409 4.161 13.924 4.161ZM13.924 2C10.6873 2 10.2804 2.01347 9.00875 2.07275C7.73978 2.13203 6.87239 2.33412 6.11476 2.63052C5.33036 2.93769 4.66643 3.34725 4.0025 4.0128C3.33857 4.68104 2.93164 5.34928 2.62645 6.13877C2.33197 6.90131 2.13118 7.77433 2.07228 9.05153C2.01339 10.3314 2 10.741 2 13.9987C2 17.2563 2.01339 17.6659 2.07228 18.9458C2.13118 20.223 2.33197 21.096 2.62645 21.8585C2.93164 22.648 3.33857 23.3163 4.0025 23.9845C4.66643 24.6527 5.33036 25.0623 6.11476 25.3695C6.87239 25.6659 7.73978 25.868 9.00875 25.9272C10.2804 25.9865 10.6873 26 13.924 26C17.1606 26 17.5676 25.9865 18.8392 25.9272C20.1082 25.8707 20.9755 25.6659 21.7332 25.3695C22.5176 25.0623 23.1815 24.6527 23.8454 23.9845C24.5094 23.3163 24.9163 22.648 25.2215 21.8585C25.516 21.096 25.7168 20.223 25.7757 18.9458C25.8346 17.6659 25.8479 17.2563 25.8479 13.9987C25.8479 10.7383 25.8346 10.3314 25.7757 9.05153C25.7168 7.77433 25.516 6.90131 25.2215 6.13877C24.9163 5.34928 24.5094 4.68104 23.8454 4.0128C23.1815 3.34456 22.5176 2.93499 21.7332 2.62782C20.9755 2.33142 20.1082 2.12934 18.8392 2.07006C17.5676 2.01347 17.1633 2 13.924 2ZM13.9481 7.85786C10.5642 7.85786 7.8201 10.6197 7.8201 14.0256C7.8201 17.4315 10.5642 20.1933 13.9481 20.1933C17.332 20.1933 20.076 17.4315 20.076 14.0256C20.076 10.6197 17.332 7.85786 13.9481 7.85786ZM13.9481 18.0269C11.7528 18.0269 9.96984 16.2351 9.96984 14.0229C9.96984 11.8107 11.7501 10.0189 13.9481 10.0189C16.1433 10.0189 17.9263 11.8107 17.9263 14.0229C17.9263 16.2351 16.146 18.0269 13.9481 18.0269ZM21.685 7.57225C21.685 8.36174 21.0505 9.00034 20.2661 9.00034C19.4817 9.00034 18.8472 8.36174 18.8472 7.57225C18.8472 6.78276 19.4817 6.14416 20.2661 6.14416C21.0478 6.14146 21.685 6.78276 21.685 7.57225Z" fill="white"/>
</svg>
