<svg width="39" height="50" viewBox="0 0 39 50" xmlns="http://www.w3.org/2000/svg">
<path d="M37.68 14.572C36.4799 10.5036 34.1884 7.18676 30.8162 4.63242C28.15 2.61727 25.147 1.40818 21.84 0.983363C19.9232 0.738277 18.0063 0.787294 16.1057 1.12497C13.6513 1.56068 11.3651 2.44843 9.26365 3.78823C6.38021 5.62365 4.14295 8.06362 2.56819 11.1027C0.873961 14.3705 0.195183 17.8507 0.493846 21.5161C0.667613 23.662 1.21063 25.7098 2.07947 27.6759C2.12834 27.7848 2.15006 27.9101 2.15006 28.0299C2.15549 30.4263 2.15549 32.8282 2.15549 35.23C2.15549 37.5502 2.15549 39.8757 2.15549 42.1959C2.15549 43.1653 2.3727 44.0858 2.88314 44.9082C3.96376 46.651 5.54395 47.4952 7.58571 47.4462C8.45998 47.4244 9.26365 47.1412 10.0239 46.7272C10.5289 46.4549 11.0448 46.4331 11.5769 46.6456C13.4666 47.408 15.3564 48.1596 17.2461 48.9167C18.6742 49.4886 20.1024 49.4722 21.5251 48.9058C23.4202 48.1487 25.3154 47.3808 27.2105 46.6238C27.3897 46.553 27.5798 46.4931 27.7698 46.4658C28.15 46.4059 28.5029 46.4931 28.8396 46.6728C29.7139 47.1466 30.6424 47.4353 31.647 47.3972C33.1458 47.3481 34.4056 46.7654 35.3993 45.6489C36.2899 44.6522 36.708 43.4594 36.708 42.1142C36.7026 37.4303 36.708 32.7519 36.708 28.0681C36.708 27.9156 36.7406 27.7576 36.8003 27.6215C37.7452 25.481 38.2773 23.2426 38.4076 20.9116C38.5271 18.7602 38.2936 16.6416 37.68 14.572ZM33.2489 42.1904C33.2489 43.1871 32.6027 43.906 31.6253 43.9932C31.2778 44.0259 30.9465 43.9278 30.637 43.759C30.0234 43.4213 29.3826 43.1762 28.6875 43.0673C27.7101 42.9094 26.7761 43.0564 25.8693 43.4213C24.0013 44.1675 22.1387 44.9191 20.2816 45.6761C19.7114 45.9103 19.1575 45.9103 18.5873 45.6761C16.7248 44.9136 14.8622 44.1675 12.9996 43.4213C11.4683 42.8059 9.96415 42.8821 8.48713 43.6228C8.18304 43.7753 7.85722 43.9224 7.53141 43.9714C6.58655 44.1185 5.69057 43.3614 5.6254 42.4029C5.61997 42.3103 5.61997 42.2231 5.61997 42.1305C5.61997 39.1568 5.61997 36.1886 5.61997 33.2149V32.9861C9.44285 36.8748 14.0314 38.9281 19.4399 38.9281C24.8484 38.9281 29.4369 36.8748 33.2435 33.0024C33.2489 33.0733 33.2598 33.1277 33.2598 33.1822C33.2489 36.1831 33.2489 39.1895 33.2489 42.1904ZM19.4182 35.4696C10.9036 35.4152 3.8823 28.4602 3.99091 19.6752C4.09408 11.2007 10.947 4.33831 19.467 4.29474C28.2043 4.31108 35.0952 11.326 35.0735 19.8985C35.0463 28.6944 27.949 35.5241 19.4182 35.4696ZM28.5518 15.2637C27.9219 14.7517 27.1888 14.5339 26.3851 14.5284C25.4783 14.5284 24.5714 14.523 23.6592 14.5284C23.518 14.5284 23.4528 14.4903 23.4148 14.3487C23.2845 13.9075 23.1487 13.4664 23.0021 13.0307C22.774 12.3553 22.5894 11.6582 22.2799 11.021C21.7749 9.97529 20.9006 9.38163 19.744 9.26181C18.7231 9.15833 17.8434 9.49056 17.1212 10.2258C16.7085 10.6452 16.437 11.1517 16.2578 11.7127C15.9754 12.595 15.6985 13.4827 15.4324 14.3705C15.3944 14.5012 15.3346 14.5393 15.2043 14.5393C14.292 14.5284 13.3743 14.523 12.4621 14.523C10.9633 14.523 9.71436 15.3944 9.25822 16.7614C8.78036 18.1829 9.20392 19.6643 10.366 20.6066C11.1805 21.2656 11.9951 21.9137 12.8204 22.5618C12.9236 22.6435 12.9453 22.7143 12.9019 22.8396C12.6032 23.7872 12.3154 24.7349 12.0222 25.6826C11.7398 26.5975 11.8104 27.4907 12.2394 28.3513C12.8965 29.6747 14.3518 30.3937 15.7691 30.1159C16.3718 29.9961 16.8714 29.6802 17.3493 29.3153C18.0335 28.7924 18.7285 28.2859 19.429 27.7685C19.4996 27.8175 19.5648 27.8611 19.6245 27.9101C20.3685 28.4602 21.1124 29.0212 21.8563 29.5713C22.9695 30.3828 24.5117 30.3719 25.6195 29.544C26.8033 28.6617 27.2974 27.1149 26.8467 25.6989C26.548 24.7676 26.244 23.8362 25.9344 22.9049C25.8856 22.7579 25.8964 22.6653 26.0322 22.5618C26.6241 22.1043 27.2105 21.6414 27.7916 21.173C28.2857 20.7754 28.8124 20.4214 29.1871 19.8822C30.1972 18.4389 29.9256 16.3802 28.5518 15.2637ZM25.2122 18.8093C24.7398 19.1851 24.2674 19.5609 23.7949 19.9367C22.6329 20.868 22.1821 22.3494 22.6383 23.7709C22.9207 24.6532 23.2085 25.5355 23.5126 26.4668C23.4257 26.4069 23.3768 26.3797 23.3334 26.3416C22.7089 25.8568 22.0844 25.3721 21.4545 24.8874C20.2273 23.9452 18.6308 23.9452 17.3981 24.8874C16.7465 25.3885 16.0949 25.895 15.4052 26.4287C15.4378 26.3252 15.4541 26.2599 15.4704 26.1945C15.7528 25.236 16.0786 24.2883 16.3121 23.3188C16.5456 22.3548 16.2958 21.4507 15.7256 20.6392C15.3401 20.0892 14.7862 19.7297 14.2812 19.3158C13.8033 18.9236 13.32 18.5478 12.8367 18.1611C12.7879 18.123 12.7444 18.0795 12.6467 17.9978C12.777 17.9978 12.8476 17.9978 12.9236 17.9978C13.8522 17.9923 14.7808 18.0141 15.7039 17.976C17.0126 17.9215 18.1584 17.0446 18.5819 15.8029C18.848 15.0241 19.0869 14.2343 19.3367 13.4446C19.3584 13.3847 19.3802 13.3248 19.3964 13.2649C19.4127 13.2649 19.4236 13.2649 19.4399 13.2594C19.5485 13.5971 19.6571 13.9348 19.7657 14.2725C19.9069 14.7245 20.0481 15.1765 20.1947 15.6286C20.678 17.1154 21.8781 17.9923 23.4365 17.9978C24.2674 18.0032 25.0982 17.9978 25.9236 17.9978H26.1299C26.1353 18.0141 26.1408 18.0304 26.1462 18.0413C25.8421 18.3028 25.5272 18.5533 25.2122 18.8093Z" />
</svg>
