<svg width="44" height="39" viewBox="0 0 44 39" xmlns="http://www.w3.org/2000/svg">
<path d="M43.7191 5.80113C43.7191 5.50917 43.7062 5.21721 43.6591 4.92954C43.4879 3.86475 42.9999 2.95451 42.1908 2.21603C41.1977 1.31438 40.0033 0.893616 38.642 0.893616C31.8055 0.893616 24.9691 0.893616 18.1326 0.893616C17.7858 0.893616 17.4434 0.897909 17.0966 0.919377C15.8209 0.996661 14.7422 1.5033 13.8689 2.39206C12.9485 3.32805 12.5162 4.45725 12.5162 5.74532C12.5162 8.80232 12.5162 11.8593 12.5162 14.9163V15.1568H12.255C9.10006 15.1568 9.07865 15.1568 5.9194 15.1568C5.26016 15.1568 4.61803 15.2469 4.00588 15.4916C2.64029 16.0283 1.69851 16.96 1.17625 18.2867C0.923684 18.9265 0.872314 19.592 0.872314 20.2661C0.876595 23.7696 0.872314 27.2731 0.880876 30.7766C0.880876 31.2318 0.90228 31.6955 0.970773 32.1463C1.28327 34.1857 2.27642 35.8688 3.93738 37.1697C5.4742 38.3719 7.25074 38.9344 9.22848 38.9301C15.5513 38.9258 18.7448 38.9301 25.0675 38.9301C29.6052 38.9301 34.1429 38.9301 38.6805 38.9301C39.9177 38.9301 41.0264 38.5737 41.9682 37.7966C43.1668 36.8134 43.7276 35.5425 43.7234 34.0226C43.7191 24.6197 43.7234 15.2126 43.7191 5.80113ZM11.3175 34.1041C10.5256 34.9843 9.54526 35.5124 8.40228 35.6842C6.55725 35.4308 5.26016 34.4304 4.51101 32.7474C4.24988 32.1592 4.15999 31.5366 4.15999 30.9012C4.15571 27.2774 4.16427 23.658 4.15571 20.0342C4.15143 19.0424 4.90057 18.3254 5.90228 18.3254C9.09578 18.3297 9.15571 18.3254 12.3492 18.3254H12.5247V18.5401C12.5247 22.6619 12.5247 26.7837 12.5247 30.9097C12.5204 32.1162 12.1394 33.1939 11.3175 34.1041ZM39.7807 35.4351C39.5281 35.6155 39.2456 35.7271 38.9331 35.7529C38.8432 35.7614 38.749 35.7614 38.6549 35.7614C30.5598 35.7614 22.4648 35.7614 14.374 35.7614H14.1386C14.3184 35.4952 14.4896 35.2548 14.6437 35.0101C15.4442 33.7306 15.8081 32.3352 15.8081 30.8453C15.8081 22.4987 15.8081 14.1521 15.8081 5.80972C15.8081 5.23009 15.9879 4.73204 16.4845 4.37997C16.8098 4.14812 17.1823 4.07083 17.5804 4.07083H27.9186C31.5059 4.07083 35.0932 4.07083 38.6805 4.07083C39.3997 4.07083 39.9734 4.34562 40.273 4.99395C40.3886 5.23868 40.4314 5.53493 40.4357 5.80542C40.4442 10.5884 40.4442 15.3714 40.4442 20.1544C40.4442 24.7829 40.4442 29.4113 40.4442 34.0397C40.4442 34.6065 40.2645 35.0874 39.7807 35.4351ZM22.4519 19.914C24.1643 19.914 25.8809 19.914 27.5932 19.914C28.0427 19.914 28.4922 19.9226 28.9417 19.914C30.0632 19.8925 30.9622 19.4417 31.6215 18.5658C32.0538 17.9948 32.2251 17.3379 32.2251 16.6337C32.2251 14.6458 32.2251 12.6622 32.2251 10.6743C32.2251 10.4897 32.2165 10.3051 32.2037 10.1204C32.0795 8.549 30.7097 7.26523 29.0744 7.24376C26.8184 7.218 24.5624 7.23088 22.3064 7.23947C22.041 7.23947 21.767 7.2867 21.5059 7.3511C20.1617 7.686 19.1429 8.8796 19.1043 10.2149C19.0701 11.3312 19.0958 12.4518 19.0958 13.5681H19.0829C19.0829 14.59 19.0829 15.6162 19.0829 16.638C19.0829 17.3336 19.2542 17.9862 19.6823 18.5529C20.3672 19.4589 21.2918 19.914 22.4519 19.914ZM22.3877 10.4167H28.9288V16.7325H22.3877V10.4167ZM33.8432 23.0869C31.66 23.0869 29.4811 23.0869 27.2978 23.0869H25.9109C24.1857 23.0869 22.4605 23.0826 20.7353 23.0869C19.6437 23.0912 18.8689 24.0658 19.1472 25.0791C19.3441 25.7961 19.9905 26.2556 20.821 26.2556C25.1403 26.2556 29.4597 26.2556 33.779 26.2556C33.8175 26.2556 33.8518 26.2556 33.8903 26.2556C34.9006 26.2169 35.6155 25.4269 35.4999 24.4694C35.4014 23.6708 34.7079 23.0912 33.8432 23.0869ZM27.2037 29.4199C25.1189 29.4199 23.0384 29.4199 20.9537 29.4199C20.8252 29.4199 20.6968 29.4242 20.5684 29.4371C19.6052 29.5186 18.9203 30.4246 19.13 31.3348C19.3055 32.0905 19.9391 32.5842 20.7696 32.5885C21.8526 32.5971 22.94 32.5928 24.023 32.5928V32.5885C25.1446 32.5885 26.2662 32.6057 27.3877 32.5842C28.5136 32.5585 29.2542 31.4121 28.8218 30.4074C28.5521 29.7848 27.9528 29.4199 27.2037 29.4199Z" />
</svg>
