<svg width="28" height="28" viewBox="0 0 28 28" fill="none" xmlns="http://www.w3.org/2000/svg">
<path d="M11.7076 10.892C11.7076 12.2932 11.7076 13.6889 11.7076 15.0955C11.6728 15.0874 11.6433 15.082 11.6139 15.0739C11.1936 14.958 10.7679 14.9149 10.3342 14.958C9.61943 15.0308 8.97959 15.2922 8.43078 15.7529C7.77756 16.2999 7.37063 16.9897 7.22339 17.825C6.96639 19.307 7.7026 20.7755 9.04652 21.4761C9.59266 21.7617 10.1789 21.8937 10.7947 21.8748C12.3929 21.8263 13.7824 20.665 14.0983 19.1103C14.1465 18.8732 14.1706 18.636 14.1706 18.3935C14.1706 16.6367 14.1706 14.8799 14.1706 13.1231C14.1706 11.0618 14.1706 9.00047 14.1732 6.93917C14.1732 5.33594 14.1732 3.7327 14.1759 2.12947C14.1759 2.09175 14.1759 2.05402 14.1759 2.0163C14.2536 2.00013 18.1997 1.99205 18.3469 2.01091C18.379 3.57912 18.9305 4.93984 20.0522 6.05268C21.1766 7.16551 22.55 7.71519 24.1429 7.74483C24.1429 9.11903 24.1429 10.4905 24.1429 11.8701C22.0226 11.854 20.0977 11.2423 18.3522 10.0271C18.3522 10.0837 18.3522 10.1214 18.3522 10.1564C18.3522 12.9075 18.3576 15.6586 18.3496 18.407C18.3442 20.2177 17.7606 21.8317 16.596 23.2275C15.469 24.5828 14.026 25.4478 12.2939 25.8277C11.5978 25.9813 10.8911 26.0298 10.1789 25.9813C6.87268 25.7738 4.0724 23.4754 3.24249 20.3012C3.05509 19.5791 2.97477 18.8462 3.0069 18.0998C3.14879 14.7856 5.43506 11.9483 8.66637 11.0752C9.44809 10.8651 10.2432 10.7842 11.0517 10.822C11.2552 10.8327 11.4586 10.8597 11.6594 10.8785C11.6728 10.8812 11.6862 10.8866 11.7076 10.892Z" fill="white"/>
</svg>
