<svg width="40" height="32" viewBox="0 0 40 32" xmlns="http://www.w3.org/2000/svg">
<path fill-rule="evenodd" clip-rule="evenodd" d="M34.1121 1.34007L29.3773 28.7666C29.3139 29.1115 29.12 29.3809 28.7845 29.5713C28.613 29.6683 28.4191 29.7151 28.2104 29.7151C28.0762 29.7151 27.927 29.6863 27.7667 29.6252L19.3933 26.32L14.9195 31.5868C14.6958 31.8599 14.3975 31.9964 14.0135 31.9964C13.8532 31.9964 13.719 31.9713 13.6072 31.9246C13.3723 31.8419 13.1859 31.7018 13.0442 31.5042C12.9025 31.3066 12.8317 31.091 12.8317 30.8539V24.6242L28.8069 5.71236L9.0439 22.2315L1.74043 19.3394C1.28559 19.1705 1.03953 18.8436 1.00225 18.3586C0.976156 17.8808 1.17375 17.5323 1.59503 17.3059L32.3561 0.161671C32.5388 0.0538902 32.7364 0 32.9451 0C33.1912 0 33.4149 0.0646682 33.6087 0.197597C34.0188 0.481419 34.1866 0.862243 34.1121 1.34007Z"/>
</svg>
