<svg width="28" height="28" viewBox="0 0 28 28" fill="none" xmlns="http://www.w3.org/2000/svg">
<path fill-rule="evenodd" clip-rule="evenodd" d="M26.8341 3.00505L23.283 23.5749C23.2355 23.8336 23.0901 24.0357 22.8384 24.1785C22.7098 24.2513 22.5644 24.2863 22.4078 24.2863C22.3071 24.2863 22.1953 24.2647 22.0751 24.2189L15.795 21.74L12.4396 25.6901C12.2719 25.8949 12.0482 25.9973 11.7602 25.9973C11.6399 25.9973 11.5393 25.9784 11.4554 25.9434C11.2792 25.8814 11.1394 25.7764 11.0332 25.6282C10.9269 25.48 10.8738 25.3183 10.8738 25.1405V20.4682L22.8552 6.28427L8.03295 18.6736L2.55534 16.5045C2.21422 16.3779 2.02967 16.1327 2.00171 15.7689C1.98214 15.4106 2.13033 15.1492 2.4463 14.9795L25.5171 2.12125C25.6541 2.04042 25.8023 2 25.9589 2C26.1434 2 26.3112 2.0485 26.4566 2.1482C26.7642 2.36106 26.89 2.64668 26.8341 3.00505Z" fill="white"/>
</svg>
