<svg width="38" height="32" viewBox="0 0 38 32" xmlns="http://www.w3.org/2000/svg">
<path d="M16.131 11.856C16.131 13.7242 16.131 15.5852 16.131 17.4606C16.0846 17.4498 16.0453 17.4426 16.006 17.4319C15.4456 17.2774 14.8781 17.2199 14.2998 17.2774C13.3467 17.3744 12.4936 17.7229 11.7619 18.3372C10.8909 19.0665 10.3484 19.9863 10.152 21.1C9.80936 23.076 10.791 25.034 12.5829 25.9681C13.3111 26.3489 14.0928 26.5249 14.9138 26.4998C17.0448 26.4351 18.8973 24.8867 19.3185 22.8137C19.3828 22.4975 19.4149 22.1814 19.4149 21.858C19.4149 19.5156 19.4149 17.1732 19.4149 14.8308C19.4149 12.0824 19.4149 9.33396 19.4185 6.58556C19.4185 4.44792 19.4185 2.31027 19.4221 0.172626C19.4221 0.122329 19.4221 0.0720315 19.4221 0.0217339C19.5256 0.000177853 24.787 -0.0106002 24.9834 0.0145486C25.0262 2.10549 25.7615 3.91979 27.2572 5.40357C28.7563 6.88735 30.5875 7.62025 32.7114 7.65977C32.7114 9.49204 32.7114 11.3207 32.7114 13.1602C29.8843 13.1386 27.3178 12.3231 24.9905 10.7028C24.9905 10.7782 24.9905 10.8285 24.9905 10.8752C24.9905 14.5433 24.9976 18.2115 24.9869 21.876C24.9798 24.2903 24.2016 26.4423 22.6489 28.3033C21.1461 30.1104 19.2222 31.2637 16.9127 31.7702C15.9846 31.975 15.0423 32.0397 14.0928 31.975C9.68442 31.6984 5.95071 28.6338 4.84416 24.4017C4.59429 23.4388 4.48721 22.4616 4.53004 21.4664C4.71923 17.0474 7.76759 13.2644 12.076 12.1003C13.1183 11.8201 14.1784 11.7123 15.2564 11.7626C15.5277 11.777 15.799 11.8129 16.0667 11.8381C16.0846 11.8417 16.1024 11.8488 16.131 11.856Z" />
</svg>
