<svg width="28" height="28" viewBox="0 0 28 28" fill="none" xmlns="http://www.w3.org/2000/svg">
<path fill-rule="evenodd" clip-rule="evenodd" d="M24.544 5.79387C25.7219 5.0448 26.6268 3.85652 27.0525 2.4419C25.9495 3.13978 24.7287 3.64096 23.4276 3.9131C22.3889 2.7356 20.9058 2 19.262 2C16.111 2 13.557 4.71337 13.557 8.05726C13.557 8.53149 13.6052 8.99495 13.7016 9.43685C8.96038 9.18356 4.75727 6.77467 1.93825 3.10744C1.44833 4.00472 1.16723 5.0448 1.16723 6.15493C1.16723 8.25665 2.17384 10.1105 3.70516 11.1991C2.77084 11.1667 1.89006 10.8919 1.11904 10.4419V10.5173C1.11904 13.4544 3.08406 15.9037 5.69962 16.4587C5.22042 16.6015 4.71712 16.6716 4.19507 16.6716C3.82831 16.6716 3.46957 16.6366 3.12154 16.5638C3.84705 18.97 5.95395 20.7242 8.45172 20.77C6.49741 22.3947 4.03712 23.3621 1.36266 23.3621C0.902195 23.3621 0.447082 23.3351 0 23.2785C2.52722 24.9949 5.52561 26 8.74888 26C19.2486 26 24.9857 16.7686 24.9857 8.76322C24.9857 8.49916 24.983 8.23779 24.9723 7.97912C26.0887 7.12496 27.0578 6.05793 27.8208 4.84271C26.7981 5.32233 25.6978 5.64837 24.544 5.79387Z" fill="white"/>
</svg>
