<svg width="37" height="32" viewBox="0 0 37 32" xmlns="http://www.w3.org/2000/svg">
<path fill-rule="evenodd" clip-rule="evenodd" d="M32.7217 5.05849C34.2922 4.05973 35.4987 2.47536 36.0663 0.589199C34.5957 1.5197 32.968 2.18794 31.2332 2.5508C29.8482 0.980802 27.8707 0 25.679 0C21.4777 0 18.0724 3.61783 18.0724 8.07634C18.0724 8.70866 18.1366 9.3266 18.2651 9.9158C11.9435 9.57808 6.33937 6.36623 2.58067 1.47659C1.92745 2.67295 1.55265 4.05973 1.55265 5.53991C1.55265 8.3422 2.89478 10.814 4.93655 12.2654C3.69079 12.2223 2.51642 11.8558 1.4884 11.2559V11.3565C1.4884 15.2725 4.10842 18.5382 7.59584 19.2783C6.95689 19.4687 6.28582 19.5621 5.58977 19.5621C5.10075 19.5621 4.62243 19.5154 4.15839 19.4184C5.12573 22.6267 7.93494 24.9655 11.2653 25.0266C8.65955 27.193 5.37917 28.4828 1.81322 28.4828C1.19926 28.4828 0.592447 28.4468 -0.00366211 28.3714C3.36596 30.6599 7.36382 32 11.6615 32C25.6612 32 33.3106 19.6915 33.3106 9.01763C33.3106 8.66554 33.3071 8.31705 33.2928 7.97216C34.7813 6.83328 36.0734 5.41058 37.0907 3.79028C35.7272 4.42977 34.2601 4.86449 32.7217 5.05849Z"/>
</svg>
