<svg width="37" height="32" viewBox="0 0 37 32" xmlns="http://www.w3.org/2000/svg">
<path d="M36.3412 24.024C36.2413 23.8624 35.6381 22.5654 32.7253 19.8996C29.6734 17.1117 30.0839 17.5608 33.7569 12.7358C35.995 9.79703 36.8874 8.00428 36.609 7.23545C36.3448 6.50254 34.6993 6.69655 34.6993 6.69655L29.2272 6.72888C29.2272 6.72888 28.8203 6.67499 28.5204 6.85103C28.2277 7.02348 28.035 7.42945 28.035 7.42945C28.035 7.42945 27.1712 9.70362 26.0146 11.6365C23.5767 15.7178 22.6022 15.9333 22.2024 15.6782C21.2743 15.0855 21.5063 13.3035 21.5063 12.0389C21.5063 8.08332 22.1167 6.43428 20.3213 6.01035C19.7251 5.86664 19.2897 5.77682 17.7655 5.75886C15.813 5.7409 14.1603 5.76604 13.2215 6.21872C12.5968 6.52051 12.1185 7.18875 12.4112 7.22826C12.7717 7.27497 13.5927 7.44383 14.0246 8.02943C14.585 8.78389 14.5672 10.4725 14.5672 10.4725C14.5672 10.4725 14.8885 15.1286 13.814 15.7034C13.0751 16.0986 12.065 15.2902 9.89113 11.5898C8.78101 9.70003 7.93861 7.6019 7.93861 7.6019C7.93861 7.6019 7.77798 7.2103 7.48528 6.99833C7.13546 6.74325 6.64644 6.66421 6.64644 6.66421L1.44566 6.70014C1.44566 6.70014 0.663932 6.7217 0.37837 7.05582C0.121365 7.35401 0.356953 7.96836 0.356953 7.96836C0.356953 7.96836 4.42977 17.3596 9.04159 22.0948C13.2715 26.4347 18.0725 26.1509 18.0725 26.1509H20.2499C20.2499 26.1509 20.9067 26.0791 21.2422 25.7234C21.5492 25.3964 21.5385 24.7821 21.5385 24.7821C21.5385 24.7821 21.4992 21.9044 22.852 21.4804C24.187 21.0637 25.904 24.2612 27.7209 25.4934C29.0951 26.424 30.1374 26.2192 30.1374 26.2192L34.9991 26.1509C35.0027 26.1509 37.5477 25.9964 36.3412 24.024Z"/>
</svg>
