<svg width="28" height="28" viewBox="0 0 28 28" fill="none" xmlns="http://www.w3.org/2000/svg">
<path d="M27.0622 19.7019C26.9872 19.5806 26.5348 18.6079 24.3503 16.6086C22.0613 14.5176 22.3692 14.8544 25.1239 11.2357C26.8025 9.03161 27.4718 7.68705 27.263 7.11043C27.0649 6.56075 25.8307 6.70625 25.8307 6.70625L21.7267 6.7305C21.7267 6.7305 21.4215 6.69008 21.1966 6.82211C20.9771 6.95145 20.8325 7.25593 20.8325 7.25593C20.8325 7.25593 20.1846 8.96155 19.3172 10.4112C17.4888 13.4722 16.7579 13.6338 16.4581 13.4425C15.762 12.9979 15.936 11.6615 15.936 10.713C15.936 7.74633 16.3938 6.50955 15.0472 6.1916C14.6001 6.08382 14.2735 6.01645 13.1304 6.00298C11.666 5.98951 10.4265 6.00837 9.72238 6.34788C9.25388 6.57422 8.89514 7.0754 9.11467 7.10504C9.38506 7.14007 10.0008 7.26671 10.3247 7.70591C10.745 8.27176 10.7317 9.53818 10.7317 9.53818C10.7317 9.53818 10.9726 13.0303 10.1668 13.4614C9.61262 13.7578 8.85499 13.1515 7.22461 10.3762C6.39202 8.95886 5.76022 7.38527 5.76022 7.38527C5.76022 7.38527 5.63975 7.09156 5.42022 6.93259C5.15786 6.74128 4.79109 6.682 4.79109 6.682L0.890505 6.70894C0.890505 6.70894 0.304212 6.72511 0.0900407 6.9757C-0.102713 7.19934 0.0739779 7.66011 0.0739779 7.66011C0.0739779 7.66011 3.12859 14.7036 6.58745 18.2549C9.75986 21.5099 13.3606 21.297 13.3606 21.297H14.9937C14.9937 21.297 15.4863 21.2431 15.7379 20.9764C15.9681 20.7312 15.9601 20.2704 15.9601 20.2704C15.9601 20.2704 15.9307 18.1121 16.9453 17.7942C17.9465 17.4816 19.2342 19.8797 20.5969 20.8039C21.6276 21.5018 22.4093 21.3482 22.4093 21.3482L26.0556 21.297C26.0583 21.297 27.9671 21.1812 27.0622 19.7019Z" fill="white"/>
</svg>
