<svg width="65" height="71" viewBox="0 0 65 71" fill="none" xmlns="http://www.w3.org/2000/svg">
<path d="M64.3833 11.0646C64.3833 10.439 64.3359 9.81336 64.249 9.19565C63.9016 6.75648 62.7962 4.68953 61.0354 2.99479C58.9351 0.983268 56.4005 0.0012671 53.4948 0.0012671C39.2664 0.0012671 25.0379 -0.00665226 10.8095 0.0171058C9.92516 0.0171058 9.02503 0.135896 8.15648 0.325961C5.7877 0.848639 3.8611 2.13158 2.35298 4.01638C0.718528 6.05958 0 8.42747 0 11.0329C0.00789591 27.4656 1.809e-07 29.976 0.00789609 46.4087C0.00789609 47.0819 0.0236882 47.7629 0.0552719 48.4361C0.150023 50.4001 0.758008 52.2057 1.87923 53.8054C3.98744 56.8068 6.90892 58.3511 10.5726 58.462C11.2043 58.4778 11.836 58.462 12.4913 58.462C12.2071 56.5534 12.3492 54.6765 12.4913 52.768C11.7728 52.768 11.0938 52.7838 10.4226 52.7601C9.44351 52.7363 8.54338 52.4195 7.75378 51.8493C6.26146 50.7802 5.5982 49.2993 5.5982 47.4699C5.6061 30.6413 5.5982 27.7349 5.5982 10.9062C5.5982 10.7399 5.5982 10.5736 5.6061 10.4073C5.66137 9.26692 6.05616 8.24532 6.81417 7.39795C7.87222 6.20213 9.22242 5.67153 10.8016 5.67153C25.0458 5.67153 39.2822 5.67153 53.5264 5.67153C53.6606 5.67153 53.7948 5.67153 53.9291 5.67945C55.3424 5.7824 56.5426 6.34468 57.4585 7.42963C58.2955 8.41163 58.6429 9.57578 58.6429 10.8666C58.6271 27.7586 58.6271 30.7205 58.6271 47.5966C58.6271 47.755 58.6271 47.9134 58.6192 48.0639C58.5087 50.6377 56.4084 52.7521 53.8501 52.8551C53.1869 52.8788 52.5236 52.8551 51.884 52.8551C51.9156 53.8133 51.963 54.7399 51.9788 55.6585C51.9946 56.5772 51.9788 57.5037 51.9788 58.4541C52.4367 58.4541 52.9421 58.4462 53.4474 58.4541C54.9398 58.4778 56.3768 58.2165 57.7665 57.6463C59.8352 56.791 61.4697 55.4051 62.6856 53.5361C63.8779 51.7068 64.3833 49.6715 64.3833 47.4937C64.3833 30.7205 64.3833 27.8537 64.3833 11.0646ZM32.1758 40.8889C24.0273 40.8731 17.3789 47.5174 17.371 55.6981C17.3631 63.8709 23.9957 70.5311 32.1521 70.5311C40.2849 70.5311 46.9412 63.8155 46.9333 55.611C46.9254 47.4778 40.3481 40.9048 32.1758 40.8889ZM39.7401 53.259C39.6296 53.6233 39.4164 53.9955 39.1558 54.2647C36.7792 56.6801 34.3788 59.0797 31.9863 61.4714C30.7783 62.6751 29.2859 62.6672 28.07 61.4634C26.9566 60.3547 25.8512 59.246 24.7458 58.1294C23.9088 57.2899 23.6798 56.1575 24.122 55.1438C24.6826 53.8688 26.2144 53.2827 27.5015 53.8767C27.8252 54.0271 28.1252 54.2568 28.3779 54.5023C28.9306 55.0329 29.4517 55.5952 29.9966 56.1654C30.1308 56.0387 30.2098 55.9674 30.2887 55.8882C31.9469 54.2331 33.6129 52.5937 35.2473 50.9228C36.1554 49.9883 37.5766 49.917 38.4768 50.4555C39.5743 51.1049 40.0796 52.1503 39.7401 53.259ZM46.7596 14.565C41.8957 14.565 37.0397 14.565 32.1758 14.565C27.3751 14.565 22.5823 14.565 17.7816 14.565C17.5131 14.565 17.2447 14.5808 16.9762 14.6125C15.0101 14.8422 13.9994 16.9487 14.8127 18.6514C15.3654 19.7997 16.3366 20.259 17.5684 20.259C27.2409 20.259 36.9055 20.259 46.578 20.259C46.7438 20.259 46.9096 20.259 47.0754 20.2432C49.4126 20.0135 50.1785 17.5981 49.3731 16.0538C48.8362 15.0085 47.9124 14.565 46.7596 14.565ZM46.7991 28.511C37.1266 28.511 27.462 28.511 17.7895 28.511C17.5447 28.511 17.292 28.5268 17.0473 28.5506C15.0654 28.7327 13.9916 30.8551 14.8206 32.5894C15.3497 33.6981 16.2814 34.1891 17.4894 34.1891C22.3612 34.1891 27.233 34.1891 32.1048 34.1891H45.4725C45.97 34.1891 46.4674 34.205 46.9649 34.1812C48.7809 34.102 50.0048 32.5182 49.6179 30.6254C49.3415 29.3187 48.2124 28.511 46.7991 28.511Z" fill="#FFB62C"/>
</svg>
