<svg width="104" height="67" viewBox="0 0 104 67" fill="none" xmlns="http://www.w3.org/2000/svg">
<path d="M64.49 40.9049C63.91 40.4569 63.59 40.4666 63.01 40.9438C59.74 43.6418 56.4 46.2618 53.12 48.9597C51.18 50.557 49.32 50.1382 47.82 48.7454C44.96 46.1059 41.89 43.6807 38.9 41.1776C38.78 41.0802 38.65 41.0023 38.51 40.9146C33.85 44.5086 29.22 48.0831 24.58 51.6576C18.47 56.3717 12.37 61.0858 6.27 65.8193C6.02 66.0141 5.84 66.3063 5.63 66.5498C36.18 66.5498 66.73 66.5498 97.28 66.5498C96.67 65.9849 96.1 65.3615 95.44 64.8551C85.13 56.8587 74.8 48.8915 64.49 40.9049Z" fill="#FFB62C"/>
<path d="M29.09 32.8489C20.93 25.9533 12.77 19.0674 4.6 12.1814C3.1 10.9056 1.54 9.6881 0 8.45117C0 26.0409 0 43.6307 0 61.2205C0.16 61.5906 0.31 61.9704 0.5 62.4087C11.59 53.8476 22.61 45.3351 33.7 36.7643C32.1 35.4105 30.6 34.1151 29.09 32.8489Z" fill="#FFB62C"/>
<path d="M14.36 13.6136C20.46 18.7659 26.55 23.928 32.65 29.09C37.64 33.3073 42.65 37.4953 47.61 41.7418C49.78 43.6021 51.24 43.7092 53.46 41.9171C61.42 35.4597 69.38 29.0023 77.32 22.5254C85.14 16.1362 92.93 9.71776 100.75 3.33827C101.34 2.85129 101.37 2.5591 100.85 2.0429C99.35 0.533248 97.47 0.00730476 95.41 0.00730476C66.37 -0.00243492 37.33 -0.00243492 8.29 0.00730476C7.45 0.00730476 6.6 0.056003 5.77 0.202098C4.06 0.513768 2.5 1.17607 1.16 2.42274C1.31 2.59806 1.37 2.66624 1.43 2.72467C5.74 6.34784 10.06 9.971 14.36 13.6136Z" fill="#FFB62C"/>
<path d="M68.71 36.3254C80.05 45.0812 91.31 53.7786 102.78 62.6416C102.91 61.4923 103.09 60.6255 103.09 59.7587C103.11 43.1139 103.1 26.469 103.1 9.82415C103.1 9.34691 103.1 8.86968 103.1 8.15869C91.57 17.606 80.19 26.9268 68.71 36.3254Z" fill="#FFB62C"/>
</svg>
