<svg width="89" height="87" viewBox="0 0 89 87" fill="none" xmlns="http://www.w3.org/2000/svg">
<path d="M2.01985 43.0188C2.09985 42.152 2.18985 40.8176 2.34985 39.493C2.60985 37.3697 1.85985 35.4606 1.26985 33.4834C-1.57015 23.9188 0.319847 15.2891 7.27985 7.96468C12.8899 2.072 20.0499 -0.450652 28.2399 0.0655667C30.4399 0.201926 32.7199 0.669445 34.7399 1.4876C36.9799 2.40316 39.1399 2.24732 41.3999 2.17914C43.9199 2.10122 46.4699 2.00382 48.9699 2.25706C55.0999 2.89016 60.8199 4.84789 66.0799 7.98416C74.1299 12.786 79.8999 19.4773 83.3899 28.029C85.4899 33.1912 86.4699 38.5579 86.3899 44.1097C86.3799 44.8402 86.3599 45.5707 86.2199 46.2817C85.6399 49.2524 86.9299 51.9017 87.6399 54.6678C89.3399 61.2521 88.4099 67.5051 85.1199 73.505C83.3099 76.8068 80.6899 79.3295 77.7599 81.6281C75.0799 83.7319 71.8899 85.0468 68.6599 85.7968C65.8099 86.4591 62.7799 87.1701 59.7399 86.4494C56.8399 85.7578 53.8499 85.4656 51.0799 84.1897C50.3499 83.8488 49.2399 83.9365 48.4099 84.1897C45.5099 85.0566 42.5799 84.6962 39.7099 84.4235C37.0999 84.18 34.4499 83.615 31.9899 82.7384C28.8699 81.6183 25.8799 80.1087 22.9099 78.6184C21.3299 77.8295 19.8799 76.7776 18.4099 75.7744C17.3699 75.0731 16.2999 74.3621 15.4499 73.4757C13.5699 71.5083 11.7299 69.4921 10.0399 67.3785C7.14985 63.7747 5.28985 59.6255 3.88985 55.2912C2.65985 51.4634 2.12985 47.4992 2.01985 43.0188ZM43.2799 67.7584C46.0199 67.3395 48.8299 67.1642 51.4899 66.4532C56.9299 65.002 60.6699 61.7585 61.5299 56.0704C62.3899 50.4115 60.5799 45.6973 55.4799 42.7072C52.0099 40.6715 48.1799 39.23 44.5299 37.4573C42.7199 36.5807 40.7999 35.7723 39.2299 34.5645C36.8299 32.7237 37.2399 29.5777 39.8799 28.0777C41.8999 26.9284 44.1499 26.5291 46.3899 26.9868C48.8999 27.4933 51.3499 28.3017 53.7799 29.0907C56.4099 29.9381 58.9099 29.1296 59.6099 26.9284C60.2899 24.7759 59.9999 22.672 57.9299 21.2987C57.0099 20.6948 56.0099 20.1299 54.9499 19.8085C49.6299 18.1722 44.2199 18.0943 38.7999 19.2436C34.8699 20.0715 31.4799 21.8831 28.9599 25.0291C25.7199 29.0809 25.2999 37.9054 31.9899 42.1812C35.2699 44.2753 38.9899 45.7071 42.4699 47.509C44.8099 48.7167 47.2799 49.7979 49.3199 51.3952C51.7099 53.275 51.1099 56.6353 48.4199 58.1158C46.5799 59.1287 44.5399 59.2554 42.4799 59.0801C39.8099 58.856 37.4799 57.697 35.0599 56.6938C33.7299 56.1386 32.1899 55.8464 30.7399 55.8172C28.5399 55.7782 26.9799 57.5022 26.8599 59.6352C26.7099 62.1481 27.9999 63.7942 30.1499 64.9045C34.2499 66.9889 38.7099 67.4175 43.2799 67.7584Z" fill="#FFB62C"/>
</svg>
