<svg width="67" height="90" viewBox="0 0 67 90" fill="none" xmlns="http://www.w3.org/2000/svg">
<g clip-path="url(#clip0_2_369)">
<path d="M24.24 55.71C24.63 57.06 25.21 58.32 26.08 59.39C27.53 61.23 30.06 62.97 34.42 62.97C39.85 62.97 41.69 61.03 41.69 59.1C41.69 55.91 36.16 54.45 29.09 52.71C17.45 49.9 1.94 45.74 1.94 30.05C1.94 20.76 9.7 12.72 23.75 9.72004V0.0400391H43.62V10.21C52.83 12.63 58.16 17.95 61.17 22.7C62.92 25.51 64.18 28.41 64.95 31.51H40.72C40.53 30.54 40.14 29.67 39.46 28.9C38.39 27.45 36.55 26.19 33.45 26.19C28.8 26.19 27.15 27.74 27.15 29.58C27.15 31.9 31.61 32.87 37.52 34.13C49.15 36.74 66.9 40.42 66.9 57.17C66.9 67.24 59.14 77.11 43.63 79.44V89.12H23.75V78.94C13.28 76.52 7.46 70.81 4.07 65.49C2.13 62.39 0.77 59.1 0 55.71H24.24Z" fill="#FFB62C"/>
</g>
<defs>
<clipPath id="clip0_2_369">
<rect width="66.9" height="89.07" fill="white" transform="translate(0 0.0400391)"/>
</clipPath>
</defs>
</svg>
