<svg width="34" height="46" viewBox="0 0 34 46" fill="none" xmlns="http://www.w3.org/2000/svg">
<path d="M22.9702 22.4814C19.4492 22.4814 17.1191 20.6075 14.6496 18.6233C12.8671 17.1903 11.0382 15.7214 8.81402 15.1934V11.2251V10.3048C9.39784 10.2663 9.86024 9.78438 9.86024 9.19478C9.86024 8.60517 9.39784 8.1258 8.81402 8.08478V7.95917V3.58328V0.319948V0.132813H8.71844V0.112305H1.76435V3.76785H5.14582V8.08734C4.56201 8.1258 4.10219 8.60774 4.10219 9.19478C4.10219 9.77669 4.55167 10.2535 5.12515 10.3022C5.1329 10.3073 5.13807 10.3125 5.14582 10.3176V11.2225V15.16C1.89093 15.7932 0.547647 18.0286 0 19.9512L3.27555 20.8689C3.78187 19.0873 4.88491 18.3618 7.08067 18.3618C8.91994 18.3618 10.581 19.6974 12.5055 21.2432C15.0603 23.2966 18.2403 25.8549 22.9676 25.8549C29.4877 25.8549 33.1998 21.7046 33.3548 21.5278L30.7897 19.3155C30.7613 19.3462 27.9559 22.4814 22.9702 22.4814Z" fill="#FCB52C"/>
<path d="M13.9575 10.2668C14.4845 14.858 18.411 18.4239 23.1771 18.4239C27.9406 18.4239 31.8646 14.8606 32.3967 10.2745C32.9185 10.1796 33.3163 9.72591 33.3163 9.17988C33.3163 8.6313 32.9159 8.17499 32.389 8.08527C31.8284 3.52994 27.9199 0 23.1797 0C18.4343 0 14.5258 3.5325 13.9679 8.09296C13.4615 8.20063 13.0818 8.64668 13.0818 9.17988C13.0792 9.71309 13.4538 10.1566 13.9575 10.2668ZM23.1771 3.67862C25.8688 3.67862 28.1163 5.57048 28.6381 8.0904C28.1214 8.19037 27.7288 8.63899 27.7288 9.18245C27.7288 9.72847 28.1266 10.1822 28.6484 10.2771C28.1499 12.8252 25.8895 14.7504 23.1745 14.7504C20.4621 14.7504 18.2018 12.8277 17.7006 10.2822C18.238 10.2002 18.6487 9.73873 18.6487 9.18501C18.6487 8.63386 18.2431 8.17756 17.7136 8.08783C18.2405 5.57048 20.4854 3.67862 23.1771 3.67862Z" fill="#FCB52C"/>
<path d="M30.9848 27.8408H18.066H17.8774V28.028V31.2913V31.4784H18.066H22.6926V35.7954C22.1088 35.8338 21.6464 36.3157 21.6464 36.9053C21.6464 37.4873 22.0959 37.9641 22.6694 38.0128C22.6771 38.0179 22.6849 38.0256 22.6926 38.0282V45.8135V46.0006H22.8812H26.1697H26.3582V45.8135V38.0282C26.366 38.023 26.3711 38.0179 26.3789 38.0128C26.9524 37.9641 27.4044 37.4873 27.4044 36.9053C27.4044 36.3157 26.942 35.8364 26.3582 35.7954V31.481H30.9848H31.1734V31.2939V28.028V27.8408H30.9848Z" fill="#FCB52C"/>
<path d="M3.39846 38.0282V38.9331V45.8135V46.0006H3.58704H6.87551H7.06409V45.8135V39.1228H11.3445H11.5331V38.9356V35.6697V35.4826H11.3445H7.06409V31.481H14.4677H14.6562V31.2939V28.028V27.8408H14.4677H3.58704H3.39846V28.028V35.803C2.84823 35.8723 2.422 36.3388 2.422 36.9053C2.422 37.4591 2.83015 37.9179 3.36488 38.0025C3.37522 38.0102 3.38555 38.023 3.39846 38.0282Z" fill="#FCB52C"/>
</svg>
