<svg width="171" height="67" viewBox="0 0 171 67" fill="none" xmlns="http://www.w3.org/2000/svg">
<path d="M104.4 57.7749C104.9 57.1905 105.1 56.5087 105.1 55.7295C105.1 54.9503 104.9 54.3659 104.6 53.7815C104.3 53.1971 103.8 52.8075 103.2 52.6127C102.6 52.4179 101.6 52.2231 100.3 52.2231H97.8V64.2031H100.2V59.1384C101.4 59.1384 102.2 59.041 102.7 58.9436C103.3 58.7488 103.9 58.3592 104.4 57.7749ZM102.6 56.4113C102.5 56.6061 102.3 56.7035 102.1 56.8009C101.9 56.8983 101.5 56.8983 100.9 56.8983H100.2V54.4633H100.9C101.6 54.4633 102.1 54.5607 102.4 54.6581C102.8 54.8529 103 55.2425 103 55.6321C102.8 55.9243 102.7 56.2165 102.6 56.4113Z" fill="#FFFFFF"/>
<path d="M108.4 52.2231L103.6 64.2031H106L107 61.7682H112L113 64.2031H115.4L110.8 52.2231H108.4ZM107.9 59.528L109.6 55.4373L111.2 59.528H107.9Z" fill="#FFFFFF"/>
<path d="M123.4 57.6775C123.8 57.1905 124 56.5087 124 55.7295C124 54.9503 123.8 54.3659 123.5 53.7815C123.2 53.1971 122.7 52.8075 122.1 52.6127C121.5 52.4179 120.6 52.2231 119.2 52.2231H116.7V64.2031H119V59.1384H119.2L122 64.2031H124.6L121.7 58.8462C122.4 58.6514 123 58.1644 123.4 57.6775ZM121.3 56.6061C121 56.8009 120.5 56.8983 119.8 56.8983H119V54.4633H119.6C120.2 54.4633 120.7 54.4633 120.9 54.5607C121.1 54.6581 121.3 54.7555 121.5 54.9503C121.6 55.1451 121.7 55.3399 121.7 55.6321C121.7 56.1191 121.6 56.4113 121.3 56.6061Z" fill="#FFFFFF"/>
<path d="M125.6 54.4633H127.7V64.2031H130.1V54.4633H132.4V52.2231H125.6V54.4633Z" fill="#FFFFFF"/>
<path d="M141.4 60.1124L136.1 52.2231H133.8V64.2031H136.2V56.3139L141.5 64.2031H143.7V52.2231H141.4V60.1124Z" fill="#FFFFFF"/>
<path d="M145.4 64.2031H152.1V61.963H147.7V58.8462H152.1V56.6061H147.7V54.4633H152.1V52.2231H145.4V64.2031Z" fill="#FFFFFF"/>
<path d="M160.5 57.6775C160.9 57.1905 161.1 56.5087 161.1 55.7295C161.1 54.9503 160.9 54.3659 160.6 53.7815C160.2 53.1971 159.8 52.8075 159.2 52.6127C158.6 52.4179 157.7 52.2231 156.3 52.2231H153.8V64.2031H156.2V59.1384H156.4L159.2 64.2031H161.8L158.9 58.8462C159.6 58.6514 160.2 58.1644 160.5 57.6775ZM158.4 56.6061C158.1 56.8009 157.6 56.8983 156.9 56.8983H156.2V54.4633H156.8C157.4 54.4633 157.9 54.4633 158.1 54.5607C158.3 54.6581 158.5 54.7555 158.7 54.9503C158.8 55.1451 158.9 55.3399 158.9 55.6321C158.9 56.1191 158.7 56.4113 158.4 56.6061Z" fill="#FFFFFF"/>
<path d="M168.3 58.3592C168.1 58.1645 167.6 57.6775 166.7 56.9957C165.7 56.2165 165.2 55.7295 165 55.4373C164.9 55.2425 164.8 55.0477 164.8 54.8529C164.8 54.6581 164.9 54.4633 165.1 54.2685C165.3 54.0737 165.5 54.0737 165.9 54.0737C166.5 54.0737 167.2 54.4633 167.8 55.3399L169.5 53.8789C168.9 53.0997 168.2 52.6127 167.7 52.3205C167.1 52.0283 166.6 51.9309 165.9 51.9309C164.9 51.9309 164.1 52.2231 163.5 52.8075C162.8 53.3919 162.5 54.0737 162.5 54.9503C162.5 55.5347 162.7 56.1191 163.1 56.7035C163.5 57.2879 164.4 58.0671 165.7 59.1384C166.4 59.7228 166.9 60.1124 167.1 60.4046C167.3 60.6968 167.4 60.989 167.4 61.1838C167.4 61.476 167.3 61.7682 167 61.963C166.7 62.1578 166.4 62.3526 166 62.3526C165.2 62.3526 164.5 61.8656 163.9 60.7942L161.9 61.963C162.4 62.8396 162.9 63.5214 163.6 63.911C164.3 64.3006 165 64.4954 165.9 64.4954C167 64.4954 167.9 64.2032 168.6 63.5214C169.3 62.8396 169.7 62.0604 169.7 61.0864C169.7 60.5994 169.6 60.1124 169.4 59.7228C169.2 59.3332 168.8 58.8462 168.3 58.3592Z" fill="#FFFFFF"/>
<path d="M169.5 0.994141H135.9H135.4V1.48113V9.85743V10.3444H135.9H147.9V21.3505C146.4 21.4479 145.2 22.7141 145.2 24.175C145.2 25.636 146.4 26.9022 147.9 26.9996C147.9 26.9996 147.9 26.9996 148 26.9996V46.869V47.356H148.5H157.1H157.6V46.869V27.097C157.6 27.097 157.6 27.097 157.7 27.097C159.2 26.9996 160.4 25.7334 160.4 24.2724C160.4 22.8115 159.2 21.5453 157.7 21.4479V10.3444H169.7H170.2V9.85743V1.48113V0.994141H169.5Z" fill="#7A1316"/>
<path d="M97.7 46.9663V47.4533H98.2H106.8H107.3V46.9663V29.8241H118.4H118.9V29.3371V21.0583V20.5713H118.4H107.3V10.3444H126.6H127.1V9.85742V1.48113V0.994141H126.6H98.1H97.6V1.48113V21.3505C96.2 21.5453 95.1 22.714 95.1 24.175C95.1 25.636 96.2 26.8048 97.6 26.9996L97.7 27.097V29.4345V46.9663Z" fill="#7A1316"/>
<path d="M59.8 58.1672C50.6 58.1672 44.6 53.3946 38.1 48.3299C33.5 44.6287 28.7 40.9276 22.9 39.564V29.3372V26.9996C24.4 26.9022 25.6 25.636 25.6 24.175C25.6 22.714 24.4 21.4479 22.9 21.3505V21.0583V9.85742V1.48113V0.994141H22.7H4.6V10.3444H13.4V21.3505C11.9 21.4479 10.7 22.714 10.7 24.175C10.7 25.636 11.9 26.9022 13.4 26.9996C13.4 26.9996 13.4 26.9996 13.5 26.9996V29.3372V39.3692C5 41.025 1.5 46.7715 0 51.6415L8.5 53.979C9.8 49.4013 12.7 47.5507 18.4 47.5507C23.2 47.5507 27.5 50.9597 32.5 54.953C39.2 60.2125 47.4 66.7383 59.7 66.7383C76.7 66.7383 86.3 56.1218 86.7 55.6348L80 49.9857C79.9 50.3753 72.6 58.1672 59.8 58.1672Z" fill="#7A1316"/>
<path d="M36.4 26.8995C37.8 38.5873 48 47.7428 60.4 47.7428C72.8 47.7428 83 38.6847 84.4 26.8995C85.8 26.7047 86.8 25.5359 86.8 24.0749C86.8 22.7114 85.8 21.5426 84.4 21.2504C82.9 9.65995 72.7 0.69928 60.4 0.69928C48.1 0.69928 37.9 9.75735 36.4 21.3478C35.1 21.64 34.1 22.8088 34.1 24.1723C34.1 25.5359 35.1 26.6073 36.4 26.8995ZM60.4 10.0495C67.4 10.0495 73.3 14.9195 74.6 21.3478C73.3 21.64 72.2 22.7114 72.2 24.1723C72.2 25.5359 73.2 26.7047 74.6 26.9969C73.3 33.5226 67.4 38.3925 60.4 38.3925C53.3 38.3925 47.5 33.5226 46.2 26.9969C47.6 26.8021 48.7 25.6333 48.7 24.1723C48.7 22.8088 47.6 21.64 46.3 21.3478C47.5 14.9195 53.4 10.0495 60.4 10.0495Z" fill="#7A1316"/>
<path d="M95.2 62.0604H92.9V64.3336H95.2V62.0604Z" fill="#FFFFFF"/>
</svg>
