<svg width="102" height="88" viewBox="0 0 102 88" fill="none" xmlns="http://www.w3.org/2000/svg">
<path d="M23.01 0C36.57 0 46.02 8.95096 46.02 20.5706C46.02 32.1903 36.57 41.1413 23.01 41.1413C9.45 41.1413 0 32.1903 0 20.5706C0 8.9607 9.45 0 23.01 0ZM67.17 1.21749H87.07L34.83 85.9058H14.93L67.17 1.21749ZM23.01 26.0152C26.12 26.0152 28.61 23.5997 28.61 20.5706C28.61 17.5415 26.12 15.126 23.01 15.126C19.9 15.126 17.41 17.5415 17.41 20.5706C17.41 23.5997 19.9 26.0152 23.01 26.0152ZM78.99 45.982C92.55 45.982 102 54.933 102 66.5526C102 78.1723 92.55 87.1233 78.99 87.1233C65.43 87.1233 55.98 78.1723 55.98 66.5526C55.98 54.933 65.43 45.982 78.99 45.982ZM78.99 71.9972C82.1 71.9972 84.59 69.5817 84.59 66.5526C84.59 63.5235 82.1 61.1081 78.99 61.1081C75.88 61.1081 73.39 63.5235 73.39 66.5526C73.39 69.5817 75.88 71.9972 78.99 71.9972Z" fill="#FFB62C"/>
</svg>
