<svg width="174" height="174" viewBox="0 0 174 174" fill="none" xmlns="http://www.w3.org/2000/svg">
<path d="M90.3867 0.088128C89.117 0.0352512 87.8472 0 86.5951 0C64.6925 0 43.9537 8.09015 27.8176 23.019C10.888 38.6882 1.03006 59.9447 0.0777662 82.8932C-0.89216 106.124 7.23758 128.297 22.968 145.306C38.7866 162.42 60.2661 172.326 83.4561 173.189C106.981 174.035 129.395 165.54 146.519 149.201C163.625 132.862 173.148 110.812 173.342 87.1058C173.712 40.2921 137.278 2.0622 90.3867 0.088128ZM64.0929 4.93517C79.0474 0.88128 94.2488 0.88128 109.239 4.93517L112.184 5.72832L109.856 7.68476C109.574 7.93152 109.45 8.03728 109.309 8.12541L104.265 11.3333C98.8339 14.7879 93.3847 18.2601 87.9531 21.7147C87.6356 21.9263 87.2124 22.1025 86.701 22.1025C86.313 22.1025 85.8721 21.9968 85.4136 21.6971C79.841 18.1368 74.2683 14.594 68.678 11.0513L64.1458 8.17828C64.0224 8.09015 63.8989 8.00203 63.7402 7.89627L60.9539 5.81645L64.0929 4.93517ZM119.149 78.5926L112.748 98.298C110.914 103.903 109.097 109.508 107.281 115.113C106.84 116.488 105.817 116.77 105.024 116.77C92.7674 116.752 80.5287 116.752 68.2724 116.77C67.179 116.77 66.3854 116.188 66.0504 115.166C62.929 105.525 59.7899 95.9009 56.6685 86.2597L54.2702 78.6455L55.1166 77.9052L86.6657 54.9919L119.149 78.5926ZM17.995 36.9962C22.3155 31.0211 27.3591 25.6629 33.0023 21.045C39.2275 15.9512 46.1228 11.7739 53.5295 8.61892C54.7463 8.10778 55.9984 7.61426 57.2329 7.156C57.903 6.90924 58.7847 6.99737 59.402 7.40275C64.2869 10.4872 69.1718 13.5893 74.0567 16.6915L84.5671 23.3716C85.3431 23.8651 85.731 24.5701 85.731 25.5043C85.7134 28.9765 85.7134 32.4487 85.731 35.9386V41.6317C85.731 45.1039 85.731 48.5762 85.731 52.066C85.731 52.965 85.3784 53.67 84.6553 54.1987C74.4799 61.5662 64.3221 68.9514 54.1644 76.3541C53.6882 76.689 53.1944 76.8653 52.6654 76.8653C52.3832 76.8653 52.1011 76.8124 51.8189 76.7243C43.3541 74.0452 34.8717 71.3837 26.3892 68.7399C25.4193 68.4402 24.8373 67.8057 24.5904 66.8011L17.6599 39.0583C17.5188 38.4767 17.5188 37.6307 17.995 36.9962ZM1.9118 83.9331C2.44085 69.1629 6.37345 55.8027 13.9212 43.0594L15.8964 39.7281L21.2927 61.2666C21.7865 63.2583 22.2802 65.25 22.7917 67.2417C23.0385 68.1758 22.774 68.9866 22.0334 69.6564C18.8238 72.4941 15.6142 75.3495 12.4223 78.1872L1.78837 87.6345L1.9118 83.9331ZM19.0883 137.727C15.1028 132.527 11.7169 126.781 9.01871 120.665C5.86204 113.509 3.74584 106.089 2.74064 98.6153C2.47612 96.5707 2.28213 94.5085 2.10578 92.4992L1.98235 91.1773C1.91181 90.3489 2.37031 89.6086 2.82882 89.2032C5.47408 86.8414 8.11932 84.4795 10.7822 82.1177L14.6267 78.6983C17.5012 76.1602 20.358 73.6045 23.2149 71.0488C23.9908 70.3438 24.855 70.1675 25.8602 70.4848C34.2192 73.1286 42.5958 75.7372 50.9548 78.3458C52.2421 78.7512 52.5772 79.7735 52.683 80.1084C56.6509 92.3406 60.6188 104.573 64.6043 116.805C64.8865 117.669 64.763 118.479 64.2339 119.237C59.4196 126.076 54.6229 132.932 49.8438 139.789C49.1737 140.74 48.4859 141.04 47.8863 141.04C47.6747 141.04 47.4807 141.005 47.3043 140.952L25.0666 139.101C23.6558 138.978 22.2273 138.872 20.8165 138.731C19.8643 138.661 19.2647 137.956 19.0883 137.727ZM58.5202 166.562C45.1 161.785 33.7959 154.295 23.9732 143.649L21.2398 140.688L26.3892 141.075C27.271 141.146 28.0822 141.199 28.8934 141.269L39.4039 142.168C42.1549 142.397 44.9236 142.626 47.6747 142.873C48.5388 142.944 49.1737 143.613 49.4734 144.16C51.766 148.355 54.0586 152.567 56.3511 156.762L60.4601 164.341L62.2588 167.884L58.5202 166.562ZM107.898 168.695C100.897 170.492 93.7374 171.391 86.5246 171.391C84.5319 171.391 82.5568 171.321 80.564 171.18C75.8025 170.863 70.8824 170.052 65.9622 168.818C65.2039 168.624 64.6572 168.043 64.3927 167.567C61.8003 162.861 59.2256 158.137 56.6509 153.413L51.1664 143.402C50.6021 142.38 50.9195 141.534 51.2899 141.022C56.2806 133.902 61.2713 126.799 66.2444 119.66C66.9674 118.62 68.0255 118.603 68.3782 118.62H90.6512C95.6067 118.62 100.544 118.62 105.5 118.603H105.518C106.47 118.603 107.193 118.99 107.74 119.766C112.66 126.816 117.58 133.866 122.518 140.899C123.1 141.71 123.135 142.609 122.659 143.49C118.303 151.439 113.965 159.406 109.627 167.355C109.256 168.06 108.692 168.501 107.898 168.695ZM149.305 143.719C139.73 154.083 128.672 161.486 115.499 166.35L111.549 167.813L118.144 155.687C120.243 151.862 122.324 148.02 124.405 144.195C124.846 143.367 125.551 142.926 126.521 142.856C128.99 142.662 131.441 142.45 133.91 142.239L138.195 141.869C140.4 141.692 142.586 141.516 144.844 141.322L152.074 140.74L149.305 143.719ZM171.296 91.8294L171.261 92.2524C170.362 105.648 166.482 118.162 159.763 129.478C158.528 131.558 157.135 133.567 155.795 135.488C155.266 136.246 154.737 137.004 154.225 137.762C153.837 138.326 153.15 138.731 152.462 138.784C149.217 139.066 145.99 139.33 142.745 139.612L127.791 140.864C127.367 140.899 126.944 140.917 126.521 140.97C126.38 140.987 126.256 141.005 126.115 141.005C125.286 141.005 124.599 140.617 124.07 139.859C121.336 135.946 118.603 132.033 115.852 128.121L112.219 122.939C111.214 121.511 110.208 120.066 109.203 118.638C108.674 117.898 108.551 117.122 108.833 116.294C112.748 104.273 116.645 92.2348 120.543 80.1965C120.807 79.3681 121.371 78.8041 122.218 78.5397C130.859 75.843 139.5 73.1463 148.141 70.4143C149.023 70.1323 149.834 70.3085 150.54 70.9254L158.705 78.1872C162.637 81.6947 166.57 85.1846 170.503 88.6921C171.085 89.2032 171.296 89.9611 171.314 90.5075C171.367 90.9658 171.331 91.4064 171.296 91.8294ZM157.929 40.5213L159.816 43.7644C166.993 56.1552 170.802 69.11 171.42 83.3515L171.578 86.8061L168.704 84.55C168.58 84.4619 168.492 84.3914 168.422 84.3209L164.93 81.2188C160.609 77.3764 156.289 73.5517 151.968 69.7269C151.192 69.0395 150.928 68.1758 151.175 67.1712C152.638 61.3547 154.084 55.5207 155.53 49.7042L156.941 44.1521L157.929 40.5213ZM156.007 38.0184L156.271 38.5472L156.183 39.2346L153.45 50.1449C152.056 55.6969 150.663 61.249 149.27 66.8187C149.023 67.7705 148.424 68.405 147.489 68.7046C138.901 71.3837 130.312 74.0804 121.742 76.7948C121.442 76.8829 121.142 76.9358 120.842 76.9358C120.296 76.9358 119.767 76.7595 119.273 76.3894C109.08 68.9866 98.8868 61.5839 88.6761 54.1811C87.9354 53.6347 87.5651 52.9297 87.5651 51.9955C87.5827 43.1827 87.5827 34.3699 87.5651 25.5571C87.5651 24.5701 87.9707 23.8298 88.7995 23.3011C97.1409 18.0134 105.482 12.7257 113.824 7.42038C114.123 7.2265 114.952 6.69773 116.063 7.12075C125.163 10.5049 133.557 15.4048 141.035 21.6619C146.607 26.3327 151.527 31.6556 155.636 37.4368C155.795 37.6483 155.918 37.8598 156.007 38.0184Z" fill="#FFB62C"/>
</svg>
