<svg width="217" height="173" viewBox="0 0 217 173" fill="none" xmlns="http://www.w3.org/2000/svg">
<path d="M35.8535 23.4782L57.3178 14.4532C63.1494 11.9998 66.8907 6.67242 67.6284 0.83683C67.1718 0.83683 66.7326 0.819305 66.2759 0.819305C65.5558 6.1467 62.1131 10.9834 56.7909 13.2265L35.3265 22.2515C30.0043 24.4946 24.1376 23.5659 19.8166 20.3589C19.5005 20.6743 19.1843 21.0073 18.8857 21.3403C23.5931 24.8802 30.0219 25.9141 35.8535 23.4782Z" fill="#FFB62C"/>
<path d="M29.2666 25.0204C25.5428 25.0204 21.819 23.8287 18.7452 21.498L18.552 21.3578L18.8681 21.0073C19.1316 20.7269 19.3775 20.464 19.6586 20.1837L19.7991 20.0435L19.9572 20.1486C24.366 23.4081 30.2327 24.1266 35.2562 22.0062L56.7206 12.9812C61.7442 10.8607 65.3274 6.18173 66.0652 0.749194L66.0827 0.556427H66.2759C66.6272 0.556427 66.9961 0.556427 67.3474 0.573951H67.8744L67.8392 0.819292C67.0664 6.9528 63.0616 12.2276 57.3881 14.6109L35.9237 23.6359C33.7983 24.5823 31.5149 25.0204 29.2666 25.0204ZM19.2019 21.3052C23.9971 24.8101 30.3205 25.5636 35.7656 23.2855L57.23 14.2604C62.6751 11.9648 66.5394 6.91775 67.3825 1.04711H67.3474C67.0488 1.04711 66.7678 1.02958 66.4692 1.02958C65.6436 6.53222 61.9901 11.2638 56.8787 13.4193L35.4143 22.4443C30.3029 24.5998 24.3484 23.8988 19.8342 20.6393C19.6234 20.8496 19.4126 21.0774 19.2019 21.3052Z" fill="#FFB62C"/>
<path d="M65.7139 54.356C65.8017 54.5488 65.9949 54.7416 66.3989 54.5839L66.5746 54.5138L72.0021 51.3769L72.9858 53.7252C73.3195 53.1819 73.6708 52.6211 74.0221 52.0954L73.1438 50.01C72.9682 49.607 72.6696 49.4317 72.2656 49.5894L72.1075 49.6595L66.0476 53.2695C65.7139 53.4974 65.4504 53.7252 65.6612 54.2159L65.7139 54.356Z" fill="#FFB62C"/>
<path d="M23.5931 97.1154L14.5471 75.7006C12.0881 69.8826 6.74831 66.1499 0.881613 65.4139C0.881613 65.8695 0.864044 66.3076 0.864044 66.7633C6.20379 67.4817 11.0517 70.9165 13.3 76.2264L22.3636 97.6411C24.6119 102.951 23.6809 108.804 20.4665 113.115C20.7827 113.431 21.1164 113.746 21.4502 114.044C25.0159 109.347 26.0522 102.933 23.5931 97.1154Z" fill="#FFB62C"/>
<path d="M21.4853 114.377L21.1164 114.026C20.853 113.781 20.5895 113.536 20.326 113.273L20.1855 113.133L20.2909 112.975C23.558 108.576 24.2781 102.723 22.1528 97.7112L13.1068 76.2965C10.9815 71.2845 6.29164 67.7096 0.846505 66.9735L0.65329 66.956V66.7632C0.65329 66.3952 0.65328 66.0097 0.670845 65.6417V65.151L0.916753 65.1861C7.06449 65.9571 12.3515 69.9527 14.7579 75.613L23.8039 97.0277C26.1927 102.688 25.3672 109.26 21.6258 114.184L21.4853 114.377ZM20.7652 113.098C20.9759 113.308 21.1867 113.501 21.4151 113.711L21.4326 113.728C24.9456 108.944 25.7009 102.636 23.4175 97.203L14.3715 75.7883C12.0705 70.3557 7.0118 66.5004 1.12754 65.6592C1.12754 65.9571 1.10997 66.2726 1.10997 66.5705C6.62536 67.3766 11.3679 71.0392 13.5284 76.1387L22.5743 97.5359C24.7173 102.653 24.0322 108.594 20.7652 113.098Z" fill="#FFB62C"/>
<path d="M62.2185 81.4662L52.9617 59.5432L47.5341 62.6801L47.3585 62.7502C46.9545 62.9254 46.7613 62.7327 46.6735 62.5224L46.6032 62.3471C46.3924 61.8565 46.6559 61.6286 46.9896 61.4008L53.0495 57.7908L53.2076 57.7207C53.6116 57.5455 53.9278 57.7382 54.0859 58.1413L62.9562 79.1179L62.2185 81.4662Z" fill="#FFB62C"/>
<path d="M61.955 98.0442L60.9889 97.9916C53.1901 97.5885 46.4627 92.8745 43.4415 85.7246L36.6087 69.5671C32.2877 59.3329 37.1181 47.5216 47.3585 43.1931L63.5534 36.3761C70.4213 33.4846 78.2904 34.6061 84.0868 39.2851L84.8421 39.8985L84.1571 40.5819C75.7083 49.0287 69.5079 59.0701 65.7314 70.4258C62.8683 79.0653 61.5861 88.0202 61.9023 97.0453L61.955 98.0442ZM71.4049 36.5689C68.9809 36.5689 66.557 37.042 64.256 38.0234L48.0611 44.8403C38.699 48.7833 34.3077 59.5783 38.2423 68.9187L45.075 85.0762C47.7098 91.3148 53.4184 95.5031 60.1458 96.1866C59.935 87.2842 61.2699 78.452 64.0803 69.9352C67.8216 58.632 73.9343 48.5905 82.2249 40.1088C79.0281 37.7605 75.2516 36.5689 71.4049 36.5689Z" fill="#FFB62C"/>
<path d="M200.42 94.2064L194.447 120.826C192.831 128.063 195.378 135.248 200.49 139.945C200.806 139.524 201.122 139.086 201.421 138.666C196.801 134.337 194.518 127.783 195.993 121.176L201.965 94.5569C203.441 87.9502 208.324 82.9908 214.349 81.0456C214.261 80.5199 214.155 80.0117 214.05 79.486C207.41 81.5538 202.035 86.9864 200.42 94.2064Z" fill="#FFB62C"/>
<path d="M76.1826 94.4517L82.1547 67.8323C83.7707 60.5947 81.2237 53.4098 76.1123 48.7133C75.7962 49.1338 75.48 49.5719 75.1814 49.9925C79.801 54.321 82.0844 60.8751 80.6089 67.4818L74.6369 94.1012C73.1614 100.708 68.2784 105.667 62.2536 107.612C62.3414 108.138 62.4468 108.646 62.5522 109.172C69.1742 107.104 74.5666 101.689 76.1826 94.4517Z" fill="#FFB62C"/>
<path d="M138.169 32.3631L164.85 38.3213C172.105 39.9336 179.306 37.3925 184.014 32.293C183.592 31.9775 183.153 31.6621 182.732 31.3642C178.393 35.9731 171.824 38.2512 165.202 36.7792L138.521 30.8209C131.899 29.3489 126.928 24.4771 124.978 18.4663C124.451 18.5539 123.942 18.659 123.415 18.7642C125.487 25.3709 130.933 30.7508 138.169 32.3631Z" fill="#FFB62C"/>
<path d="M138.415 156.295L111.734 150.337C104.48 148.724 97.2781 151.266 92.5707 156.365C92.9922 156.681 93.4314 156.996 93.8529 157.294C98.1915 152.685 104.761 150.407 111.383 151.879L138.064 157.837C144.686 159.309 149.657 164.181 151.606 170.192C152.133 170.104 152.643 169.999 153.17 169.894C151.097 163.287 145.67 157.925 138.415 156.295Z" fill="#FFB62C"/>
<path d="M138.24 172.225C130.125 172.225 121.887 170.963 113.789 168.282C93.9934 161.745 77.9391 147.918 68.5594 129.325C59.1973 110.732 57.634 89.6325 64.1857 69.8826C77.7107 29.1035 121.957 6.91776 162.813 20.394C203.687 33.8877 225.924 78.0139 212.416 118.793C201.579 151.476 170.998 172.225 138.24 172.225ZM138.345 18.2034C106.324 18.2034 76.4285 38.479 65.8368 70.4259C59.4432 89.7377 60.9538 110.364 70.1051 128.536C79.2564 146.709 94.9595 160.22 114.316 166.617C154.259 179.795 197.504 158.1 210.73 118.25C223.939 78.3994 202.194 35.2546 162.251 22.0588C154.329 19.4301 146.284 18.2034 138.345 18.2034Z" fill="#FFB62C"/>
<path d="M147.057 130.324C145.424 130.324 143.773 130.149 142.139 129.781L119.691 124.769C107.677 122.088 100.071 110.153 102.758 98.1493L107.782 75.7532C109.082 69.9352 112.577 64.9933 117.618 61.8039C122.659 58.6144 128.632 57.5805 134.463 58.8773L156.911 63.8893C168.926 66.5705 176.531 78.5045 173.844 90.5087L168.82 112.905C167.52 118.723 164.025 123.665 158.984 126.854C155.365 129.15 151.238 130.324 147.057 130.324ZM129.545 60.0865C125.681 60.0865 121.887 61.173 118.549 63.2934C113.912 66.2375 110.698 70.7938 109.486 76.1563L104.462 98.5524C101.986 109.61 108.976 120.598 120.06 123.069L142.508 128.081C147.865 129.272 153.381 128.326 158.035 125.382C162.672 122.438 165.887 117.882 167.099 112.519L172.122 90.1232C174.599 79.0653 167.608 68.0776 156.525 65.6067L134.077 60.5947C132.566 60.2442 131.056 60.0865 129.545 60.0865Z" fill="#FFB62C"/>
<path d="M150.957 83.5691L131.424 108.576C131.301 108.769 130.845 108.874 130.581 108.822L129.966 108.681C129.545 108.594 129.404 108.243 129.475 107.928C129.51 107.77 129.598 107.612 129.703 107.455L148.919 83.1135C148.972 83.0434 148.989 82.9557 149.024 82.8681C149.06 82.7104 149.024 82.5176 148.761 82.4651L133.251 79.0128C132.794 78.9076 132.478 78.5747 132.566 78.1716L132.636 77.8386C132.724 77.4181 133.181 77.1377 133.638 77.2428L150.061 80.9054C151.009 81.1157 151.554 81.8517 151.361 82.7104C151.308 82.9908 151.203 83.2712 150.957 83.5691Z" fill="#FFB62C"/>
<path d="M138.45 172.242C132.742 172.242 126.98 171.611 121.272 170.332C79.274 160.956 52.7334 119.249 62.113 77.3304C66.6624 57.0373 78.87 39.7057 96.4701 28.5603C114.07 17.4148 134.972 13.7698 155.33 18.3086C175.67 22.8473 193.042 35.0267 204.214 52.5861C215.385 70.1455 219.038 90.9994 214.489 111.31C209.94 131.603 197.732 148.935 180.132 160.08C167.45 168.106 153.082 172.242 138.45 172.242ZM138.152 18.1684C123.836 18.1684 109.802 22.2165 97.4186 30.0498C80.205 40.95 68.2783 57.8784 63.8344 77.716C54.6479 118.688 80.5914 159.467 121.658 168.615C141.542 173.048 161.987 169.491 179.183 158.591C196.397 147.691 208.324 130.762 212.768 110.925C217.212 91.087 213.646 70.6887 202.738 53.5324C191.813 36.3586 174.845 24.4596 154.961 20.0259C149.358 18.7817 143.737 18.1684 138.152 18.1684Z" fill="#FFB62C"/>
<path d="M66.6272 132.882C40.0163 132.882 15.6889 116.953 5.23774 92.2436C-9.04257 58.4743 6.88884 19.4126 40.7365 5.16532C66.0652 -5.48946 95.8553 0.679098 114.825 20.5341L115.792 21.533L114.474 21.9711C91.4817 29.454 73.2317 47.5742 65.6436 70.4434L64.8181 70.163L65.6436 70.4434C58.9514 90.6314 61.0767 112.87 71.4752 131.463L72.1602 132.672L70.7726 132.76C69.3849 132.83 67.9973 132.882 66.6272 132.882ZM66.4692 1.74808C58.0029 1.74808 49.4839 3.39537 41.4391 6.77756C25.4726 13.4894 13.0893 26.0193 6.55511 42.0189C0.0209487 58.0186 0.143904 75.6131 6.87128 91.5426C17.3751 116.41 42.3174 132.164 69.2796 131.06C59.2324 112.291 57.3003 90.0881 63.9925 69.8651C71.5981 46.9082 89.7076 28.6304 112.612 20.7269C100.247 8.37227 83.472 1.74808 66.4692 1.74808Z" fill="#FFB62C"/>
</svg>
