<svg width="175" height="175" viewBox="0 0 175 175" fill="none" xmlns="http://www.w3.org/2000/svg">
<path d="M87.2875 141.023C80.4898 141.023 73.6922 139.727 67.1932 137.115C53.8262 131.77 43.34 121.536 37.6665 108.323C32.0106 95.1096 31.8349 80.4768 37.2098 67.1408C42.5671 53.8048 52.825 43.3428 66.069 37.6825C79.313 32.0396 93.9797 31.8644 107.347 37.2268C120.714 42.5717 131.2 52.8059 136.873 66.0193C142.529 79.2326 142.705 93.8654 137.33 107.201C131.973 120.537 121.715 130.999 108.471 136.66C101.656 139.569 94.4715 141.023 87.2875 141.023ZM87.2699 35.0713C80.3142 35.0713 73.3585 36.4733 66.7716 39.2947C53.9492 44.7623 44.0426 54.8738 38.8433 67.7892C33.6441 80.7046 33.8198 94.8468 39.2825 107.64C44.7627 120.432 54.8977 130.316 67.8431 135.503C80.7884 140.69 94.9634 140.515 107.786 135.065C120.608 129.597 130.515 119.486 135.714 106.571C140.896 93.6551 140.738 79.513 135.275 66.7202C129.795 53.9275 119.66 44.0438 106.714 38.8566C100.426 36.3331 93.8392 35.0713 87.2699 35.0713Z" fill="#FFB62C"/>
<path d="M168.42 118.627C176.886 97.0023 176.64 75.202 167.7 53.7698H167.717L167.366 52.9637L167.015 52.1575H166.997C157.67 30.9006 142.037 15.6544 120.52 6.82215V6.80463L119.712 6.47166L118.904 6.1387V6.15623C97.2292 -2.29049 75.3784 -2.04515 53.8965 6.89225V6.87472L53.0885 7.22521L52.2805 7.5757V7.59322C30.9742 16.8986 15.6927 32.4777 6.83999 53.945H6.82242L6.48869 54.7511L6.15496 55.5748H6.17252C-2.29379 77.1998 -2.04788 99 6.89268 120.432H6.87512L7.22642 121.238L7.57772 122.044H7.59528C16.9223 143.301 32.5551 158.548 54.0722 167.38V167.397L54.8801 167.73L55.6881 168.063V168.046C77.3633 176.493 99.2141 176.247 120.696 167.327V167.345L121.504 166.994L122.312 166.644V166.626C143.618 157.321 158.9 141.724 167.753 120.257H167.77L168.104 119.451L168.438 118.645L168.42 118.627ZM136.786 106.991C136.68 107.236 136.575 107.482 136.469 107.727L166.154 119.609C157.477 140.638 142.512 155.901 121.645 165.032L109.086 135.731C108.559 135.976 108.014 136.204 107.47 136.414L120.011 165.698C98.9857 174.442 77.5741 174.688 56.338 166.416L68.2119 136.87C67.9309 136.765 67.6674 136.677 67.3864 136.572C67.1054 136.467 66.8419 136.344 66.5784 136.222L54.7045 165.768C33.6265 157.111 18.3275 142.18 9.17613 121.361L38.5272 108.849C38.2813 108.323 38.0529 107.78 37.8421 107.236L8.50866 119.749C-0.256251 98.7722 -0.502161 77.4101 7.7885 56.2232L37.4733 68.1047C37.5611 67.8593 37.6489 67.5965 37.7543 67.3511C37.8773 67.0532 38.0002 66.7728 38.1407 66.4749L8.45597 54.5934C17.1331 33.5642 32.0984 18.3006 52.9656 9.17041L65.5596 38.5587C66.0866 38.3133 66.6311 38.0855 67.1756 37.8752L54.5815 8.48696C75.6068 -0.257671 97.0185 -0.485487 118.255 7.78599L106.31 37.4722C106.591 37.5773 106.855 37.6649 107.136 37.7701C107.417 37.8752 107.68 37.9979 107.944 38.1206L119.888 8.43439C140.966 17.0914 156.265 32.0221 165.416 52.841L135.96 65.4059C136.206 65.9316 136.434 66.4749 136.645 67.0182L166.101 54.4532C174.866 75.4298 175.112 96.792 166.822 117.979L137.137 106.097C137.014 106.395 136.908 106.693 136.786 106.991Z" fill="#FFB62C"/>
<path d="M107.294 115.087L87.305 104.59L67.2986 115.087L71.1101 92.8665L54.9328 77.1297L77.293 73.8877L87.2875 53.6822L97.2819 73.8877L119.642 77.1297L103.465 92.8665L107.294 115.087ZM87.305 102.61L104.975 111.88L101.603 92.2532L115.901 78.3564L96.1578 75.4999L87.305 57.6427L78.4699 75.4999L58.7269 78.3564L73.0247 92.2532L69.6523 111.88L87.305 102.61Z" fill="#FFB62C"/>
</svg>
