<svg width="176" height="175" viewBox="0 0 176 175" fill="none" xmlns="http://www.w3.org/2000/svg">
<path d="M87.6996 149.412C53.47 149.412 25.6243 121.581 25.6243 87.3701C25.6243 53.1588 53.47 25.328 87.6996 25.328C121.929 25.328 149.775 53.1588 149.775 87.3701C149.775 121.581 121.929 149.412 87.6996 149.412ZM87.6996 27.0906C54.4399 27.0906 27.3878 54.1282 27.3878 87.3701C27.3878 120.612 54.4399 147.65 87.6996 147.65C120.959 147.65 148.011 120.612 148.011 87.3701C148.011 54.1282 120.959 27.0906 87.6996 27.0906Z" fill="#FFB62C"/>
<path d="M87.7525 142.027H87.6996C84.1373 142.027 80.5574 141.675 77.1009 141.005L77.436 139.278C80.8043 139.93 84.2431 140.265 87.6996 140.265L87.7525 142.027ZM98.4216 140.97L98.0866 139.242C101.473 138.573 104.806 137.55 108.015 136.228L108.685 137.85C105.37 139.225 101.931 140.282 98.4216 140.97ZM66.8373 137.903C63.5396 136.546 60.3653 134.836 57.385 132.862L58.3549 131.399C61.2294 133.32 64.3155 134.959 67.5075 136.281L66.8373 137.903ZM118.12 132.791L117.132 131.328C120.007 129.407 122.687 127.186 125.139 124.736L126.391 125.988C123.869 128.526 121.083 130.817 118.12 132.791ZM49.0965 126.076C46.5571 123.556 44.2645 120.771 42.2894 117.81L43.7531 116.823C45.6753 119.696 47.8973 122.375 50.3486 124.825L49.0965 126.076ZM133.198 117.721L131.734 116.734C133.656 113.861 135.296 110.795 136.619 107.604L138.242 108.274C136.884 111.57 135.173 114.743 133.198 117.721ZM37.2105 108.38C35.835 105.084 34.7769 101.647 34.0891 98.1394L35.8173 97.7869C36.4875 101.171 37.5103 104.52 38.8506 107.692L37.2105 108.38ZM141.345 98.016L139.617 97.6811C140.287 94.3146 140.622 90.8424 140.622 87.3701V87.141H142.386V87.3525C142.386 90.9481 142.033 94.5438 141.345 98.016ZM33.0134 87.4759V87.3701C33.0134 83.8274 33.3484 80.2846 34.0362 76.83L35.7644 77.1649C35.1119 80.4962 34.7769 83.9332 34.7769 87.3701L33.0134 87.4759ZM139.582 76.83C138.894 73.4459 137.871 70.1147 136.531 66.9244L138.153 66.237C139.529 69.533 140.587 72.97 141.31 76.4775L139.582 76.83ZM38.7447 67.2417L37.1223 66.5719C38.4802 63.2759 40.1732 60.0857 42.1659 57.1246L43.6296 58.094C41.7074 60.967 40.0674 64.0515 38.7447 67.2417ZM131.593 57.812C129.653 54.9567 127.431 52.2599 124.98 49.8276L126.214 48.5762C128.754 51.0966 131.046 53.8639 133.039 56.825L131.593 57.812ZM50.1899 50.0567L48.9378 48.8053C51.4596 46.2672 54.2459 43.9759 57.191 41.9842L58.1785 43.4648C55.3217 45.3859 52.6235 47.6068 50.1899 50.0567ZM116.956 43.2709C114.064 41.3497 110.995 39.7281 107.803 38.4062L108.474 36.7847C111.771 38.1418 114.963 39.8339 117.944 41.8079L116.956 43.2709ZM67.3135 38.5472L66.6257 36.9257C69.9235 35.5509 73.3623 34.4933 76.8717 33.7883L77.2244 35.5156C73.8384 36.1854 70.4878 37.2077 67.3135 38.5472ZM97.8573 35.4451C94.5419 34.793 91.1208 34.4757 87.6996 34.4757L87.5232 32.7131H87.6996C91.2089 32.7131 94.7536 33.048 98.1748 33.7178L97.8573 35.4451Z" fill="#FFB62C"/>
<path d="M87.6996 107.217C76.7482 107.217 67.8249 98.3157 67.8249 87.3525C67.8249 76.407 76.7306 67.5061 87.6996 67.5061C98.6686 67.5061 107.574 76.407 107.574 87.3525C107.574 98.3157 98.6509 107.217 87.6996 107.217ZM87.6996 69.2687C77.7182 69.2687 69.5884 77.3764 69.5884 87.3525C69.5884 97.3286 77.7005 105.454 87.6996 105.454C97.6986 105.454 105.811 97.3286 105.811 87.3525C105.811 77.3764 97.681 69.2687 87.6996 69.2687Z" fill="#FFB62C"/>
<path d="M103.959 21.2212C100.45 21.2212 97.6105 18.3659 97.6105 14.876C97.6105 11.3685 100.467 8.53079 103.959 8.53079C107.451 8.53079 110.308 11.3861 110.308 14.876C110.308 18.3835 107.468 21.2212 103.959 21.2212ZM103.959 10.2757C101.42 10.2757 99.374 12.3379 99.374 14.8584C99.374 17.3965 101.437 19.441 103.959 19.441C106.481 19.441 108.544 17.3788 108.544 14.8584C108.544 12.3379 106.499 10.2757 103.959 10.2757Z" fill="#FFB62C"/>
<path d="M87.6996 174.74C39.5031 174.74 0.282776 135.541 0.282776 87.3701C0.282776 39.1994 39.5031 0 87.6996 0C135.896 0 175.116 39.1994 175.116 87.3701C175.116 135.541 135.914 174.74 87.6996 174.74ZM87.6996 1.76256C40.473 1.76256 2.04628 40.1688 2.04628 87.3701C2.04628 134.572 40.473 172.978 87.6996 172.978C134.926 172.978 173.353 134.572 173.353 87.3701C173.353 40.1688 134.926 1.76256 87.6996 1.76256Z" fill="#FFB62C"/>
<path d="M125.95 86.4888H106.693V88.2514H125.95V86.4888Z" fill="#FFB62C"/>
<path d="M68.7243 86.4888H49.4669V88.2514H68.7243V86.4888Z" fill="#FFB62C"/>
<path d="M88.5813 49.1402H86.8178V68.3874H88.5813V49.1402Z" fill="#FFB62C"/>
<path d="M88.5813 106.335H86.8178V125.582H88.5813V106.335Z" fill="#FFB62C"/>
<path d="M172.894 68.5812H172.912L172.718 67.7176L172.524 66.8539H172.506C169.438 54.1106 164.183 43.3237 156.018 33.0833L156.035 33.0656L155.489 32.3782L154.942 31.6908L154.924 31.7085C146.583 21.609 137.131 14.2062 125.297 8.56605L125.315 8.54842L124.486 8.17828L123.693 7.80814V7.82577C111.824 2.41471 101.473 0.105754 88.4402 0.0176256V0H87.5585H86.6767V0.0176256C73.5739 0.141005 61.8819 2.83772 50.0312 8.47792L50.0135 8.46029L49.22 8.84805L48.4264 9.23582L48.444 9.25344C36.7167 15.1051 27.3878 22.6489 19.2228 32.907L19.2052 32.8894L18.6585 33.5768L18.1118 34.2642L18.1294 34.2818C10.1584 44.6809 5.07951 55.5559 2.24027 68.3521H2.22264L2.04629 69.2158L1.86994 70.0794H1.88757C-0.722409 82.8403 -0.634234 93.451 2.205 106.177H2.18737L2.38135 107.04L2.57534 107.904H2.59297C5.66147 120.647 10.9167 131.434 19.0817 141.675L19.0641 141.692L19.6108 142.38L20.1575 143.067L20.1751 143.049C28.5165 153.149 37.9688 160.552 49.8019 166.192L49.7843 166.209L50.5779 166.58L51.3714 166.95V166.932C63.2222 172.343 73.5916 174.652 86.6238 174.74V174.758H87.5056H88.3873V174.74C101.49 174.617 113.2 171.92 125.033 166.28L125.051 166.298L125.844 165.91L126.638 165.522L126.62 165.504C138.347 159.653 147.676 152.109 155.841 141.851L155.859 141.869L156.406 141.181L156.952 140.494L156.935 140.476C164.906 130.077 169.985 119.202 172.824 106.406H172.841L173.018 105.542L173.194 104.678H173.177C175.822 91.8999 175.734 81.2893 172.894 68.5812ZM171.501 104.308L147.729 99.2498C147.623 99.8314 147.482 100.395 147.359 100.977L171.148 106.036C168.362 118.567 163.407 129.196 155.594 139.383L136.408 124.402C136.055 124.877 135.684 125.336 135.314 125.794L154.501 140.776C146.512 150.822 137.377 158.207 125.897 163.936L115.193 142.01C114.664 142.274 114.134 142.538 113.605 142.785L124.31 164.711C112.724 170.228 101.279 172.872 88.4402 172.995V148.496C88.1934 148.496 87.9641 148.513 87.7172 148.513C87.3645 148.513 87.0294 148.496 86.6767 148.478V172.96C73.909 172.854 63.7689 170.616 52.165 165.311L62.5344 143.085C62.0054 142.838 61.4587 142.609 60.9296 142.344L50.5602 164.57C38.974 159.036 29.7156 151.809 21.5506 141.921L36.2582 130.024L40.667 126.464C40.2966 126.005 39.9263 125.547 39.5736 125.089L35.0238 128.773L20.4572 140.564C12.4686 130.518 7.31916 119.96 4.32121 107.499L17.7944 104.396L28.3225 101.964C28.1814 101.4 28.0403 100.818 27.9345 100.254L3.88033 105.771C1.094 93.31 1.00582 82.9461 3.58054 70.4319L27.67 75.5434C27.7758 74.9617 27.9169 74.3977 28.0403 73.816L3.95087 68.7046C6.7372 56.1728 11.6926 45.5446 19.505 35.357L38.8858 50.4974C39.2385 50.0215 39.6089 49.5632 39.9792 49.1049L20.5807 33.9645C28.5694 23.9179 37.7043 16.5328 49.1847 10.8045L59.9421 32.8541C60.4711 32.5897 60.9825 32.3254 61.5292 32.061L50.7718 10.029C62.3581 4.51216 73.8032 1.86831 86.6415 1.74494V26.2269C86.9942 26.2269 87.3292 26.1917 87.6819 26.1917C87.9288 26.1917 88.1581 26.2093 88.405 26.2093V1.76256C101.173 1.86831 111.295 4.10677 122.917 9.41207L112.6 31.5146C113.129 31.7613 113.676 31.9905 114.205 32.2372L124.504 10.1524C136.09 15.6868 145.348 22.9133 153.513 32.8013L139.247 44.346L134.591 48.1179C134.961 48.5762 135.332 49.0344 135.702 49.4927L140.464 45.6327L154.642 34.1584C162.631 44.205 167.78 54.7451 170.778 67.2241L157.129 70.379L147.094 72.688C147.235 73.252 147.359 73.8337 147.482 74.3977L171.166 68.9337C173.97 81.4303 174.058 91.7942 171.501 104.308Z" fill="#FFB62C"/>
</svg>
