<svg width="175" height="175" viewBox="0 0 175 175" fill="none" xmlns="http://www.w3.org/2000/svg">
<path d="M38.1179 174.793L36.3896 173.418C35.5608 172.766 34.7319 172.114 33.9384 171.462C25.0503 164.183 17.82 156.85 11.8593 149.095C6.92152 142.644 3.72959 136.88 1.80737 130.958C-0.167752 124.842 -0.520453 119.696 0.731633 114.76C3.25344 104.767 13.2701 97.593 23.5337 98.439C29.2475 98.8973 34.1323 101.224 38.0649 105.313C39.7932 103.462 41.6096 102.07 43.5847 101.048C50.7622 97.3462 57.8867 97.4167 64.782 101.224C72.9294 105.736 77.2852 114.796 75.8744 124.331C74.834 131.276 71.9947 137.973 66.9511 145.394C61.6077 153.237 54.6772 160.728 45.1719 168.959C43.7435 170.21 42.2621 171.409 40.7631 172.625L38.1179 174.793ZM21.8937 100.131C13.0056 100.131 4.62896 106.494 2.44222 115.183C1.27831 119.784 1.61338 124.613 3.48269 130.394C5.33437 136.123 8.45577 141.728 13.2701 148.002C19.1426 155.669 26.2671 162.878 35.067 170.087C35.8606 170.739 36.6718 171.374 37.5006 172.026L38.1179 172.502L39.6697 171.233C41.1511 170.017 42.6148 168.836 44.0432 167.602C53.4427 159.477 60.2674 152.091 65.5227 144.371C70.4252 137.18 73.1763 130.729 74.1638 124.049C75.4688 115.254 71.4657 106.899 63.9708 102.74C57.6222 99.2322 51.062 99.1793 44.4312 102.599C42.4208 103.639 40.5868 105.119 38.8056 107.128L38.206 107.798L37.3419 107.005C37.1832 106.864 37.0421 106.741 36.9187 106.6C33.233 102.704 28.8242 100.607 23.4279 100.166C22.8812 100.166 22.3874 100.131 21.8937 100.131ZM152.199 174.441H114.583L116.047 172.942C120.297 168.607 123.789 163.777 126.469 158.578C117.564 165.187 108.623 164.87 99.8228 157.626C93.2978 152.25 91.1111 142.415 94.6028 134.237C98.0593 126.146 105.924 121.211 114.46 121.581C112.679 117.193 112.397 112.716 113.666 108.239C115.095 103.216 118.022 99.2322 122.378 96.4121C129.873 91.565 139.66 92.0409 146.732 97.6282C152.604 102.264 156.89 111.588 153.028 121.564C162.11 121.264 170.61 127.081 173.449 135.946C176.271 144.742 173.026 154.189 165.407 159.459C161.087 162.455 156.22 163.601 150.929 162.913C147.296 162.438 143.981 161.063 141.036 158.807C142.059 160.851 143.17 162.72 144.404 164.429C145.885 166.492 147.49 168.501 149.06 170.457C149.748 171.321 150.418 172.167 151.088 173.031L152.199 174.441ZM118.728 172.678H148.566C148.266 172.308 147.966 171.92 147.667 171.55C146.097 169.576 144.475 167.549 142.976 165.452C140.912 162.596 139.184 159.371 137.685 155.581L135.904 151.069L139.167 154.665C142.535 158.384 146.556 160.569 151.158 161.169C155.99 161.803 160.452 160.746 164.402 158.014C171.386 153.184 174.348 144.53 171.756 136.493C169.023 127.944 160.593 122.445 151.74 123.432L150.188 123.608L150.841 122.198C155.937 111.147 149.659 102.211 145.639 99.0383C139.167 93.9269 130.208 93.4686 123.348 97.9279C119.362 100.501 116.682 104.15 115.377 108.768C114.09 113.28 114.53 117.81 116.664 122.234L117.37 123.679L115.765 123.485C107.423 122.498 99.5759 127.116 96.2253 134.959C93.0333 142.433 95.0261 151.404 100.951 156.286C109.963 163.707 119.186 163.196 128.356 154.753L131.389 151.968L129.767 155.758C127.122 161.891 123.418 167.584 118.728 172.678ZM133.629 81.6947L92.7688 40.8385L133.629 0L174.489 40.8562L133.629 81.6947ZM95.2553 40.8562L133.629 79.2095L171.985 40.8738L133.629 2.52046L95.2553 40.8562ZM55.8234 76.1603H20.1125L21.5762 74.6621C25.403 70.7492 28.4539 66.6072 30.8699 62.0774C30.6759 62.2184 30.4819 62.3594 30.2879 62.5004C26.0908 65.3734 21.488 66.2194 16.6031 64.9856C10.5896 63.4874 6.19848 60.6321 3.14762 56.2609C0.502369 52.4714 -0.485195 48.1532 0.237841 43.4647C1.11959 37.7364 3.69431 32.2725 8.33232 26.2622C14.6809 18.0486 22.8812 10.5225 34.1852 2.53809C35.1023 1.88594 36.0898 1.19854 37.1303 0.599271C37.6241 0.299635 38.5235 0.229133 39.1054 0.616896C52.508 9.67646 61.6077 17.89 68.5912 27.2316C72.224 32.0962 74.5165 36.8375 75.6275 41.7374C77.5498 50.2154 74.0051 57.953 66.1399 62.4652C63.2301 64.122 59.9853 65.1266 56.2114 65.5144C53.1076 65.8316 50.0568 65.0385 46.8648 63.0821C46.3181 62.7472 45.7891 62.377 45.26 61.9893C45.4011 62.2713 45.5599 62.5357 45.7186 62.8177C46.618 64.404 47.4468 65.7788 48.258 66.9773C49.1398 68.264 50.1097 69.5683 51.2383 70.9431C51.9437 71.8067 52.702 72.6351 53.4603 73.4988L55.8234 76.1603ZM24.2391 74.3977H51.8732C51.1678 73.6222 50.4977 72.8643 49.8452 72.0711C48.6812 70.6434 47.676 69.3039 46.7767 67.982C45.9302 66.7482 45.0661 65.3381 44.1491 63.6989C43.5847 62.6943 43.0733 61.672 42.5619 60.6497L40.1283 55.8908L43.1967 58.1998C43.7082 58.5699 44.1843 58.9577 44.6781 59.3454C45.7185 60.1738 46.7061 60.9494 47.7642 61.6015C50.6034 63.3464 53.284 64.0515 55.9998 63.7695C59.5268 63.4169 62.5424 62.4828 65.2229 60.9494C72.4885 56.7897 75.6452 49.9333 73.8817 42.1428C72.8236 37.4897 70.6192 32.9599 67.1451 28.3067C60.2851 19.1238 51.3265 11.0336 38.0826 2.09745C38.1179 2.1327 37.9944 2.1327 37.9591 2.15032C37.0069 2.71434 36.0546 3.36649 35.1728 4.00101C24.0275 11.8797 15.933 19.3 9.70785 27.3549C5.26383 33.1185 2.79492 38.3181 1.96608 43.7468C1.31358 47.9769 2.19534 51.8545 4.57607 55.2739C7.38003 59.2749 11.4361 61.9011 17.0264 63.2936C21.4528 64.404 25.4736 63.6813 29.3004 61.0551C30.1116 60.5087 30.8699 59.8566 31.6635 59.1868C32.0514 58.8519 32.4394 58.517 32.8626 58.1998L35.6842 55.9261L34.2205 59.2397C31.7693 64.7917 28.4891 69.7622 24.2391 74.3977Z" fill="#FFB62C"/>
</svg>
