<svg width="90" height="87" viewBox="0 0 90 87" fill="none" xmlns="http://www.w3.org/2000/svg">
<path d="M86.2177 0.127634C85.8377 0.186073 85.4577 0.263991 85.0877 0.332169C79.8177 1.40355 74.6877 2.96191 69.6877 4.88065C60.7177 8.30905 52.4177 12.8478 45.0277 18.9157C40.3677 22.7337 36.2877 27.0679 32.7377 31.8793C28.6477 37.4115 25.3477 43.3723 22.6877 49.6739C22.2177 50.7842 22.3977 51.6511 23.2777 52.5082C24.6077 53.8036 25.9377 55.099 27.2677 56.3944C27.3677 56.4918 27.4777 56.5794 27.5877 56.6866C27.7177 56.5697 27.8277 56.4723 27.9277 56.3651C31.0977 53.2874 34.2577 50.2096 37.4277 47.1416C37.5677 47.0052 37.6977 46.8786 37.8477 46.752C38.9777 45.8267 40.6677 46.1091 41.4277 47.3364C41.9977 48.2616 41.8077 49.3915 40.9377 50.2486C37.7377 53.3653 34.5277 56.4918 31.3277 59.6085C31.2177 59.7156 31.0677 59.8033 30.9477 59.8812C32.4377 61.3519 33.8577 62.7252 35.2377 64.1277C36.1277 65.0335 37.1177 65.1699 38.2677 64.7024C42.3877 63.0564 46.3577 61.1376 50.1977 58.9462C60.1277 53.2776 68.3877 45.8657 74.8277 36.5739C79.7377 29.4931 83.4577 21.8473 86.1977 13.7438C87.3777 10.2375 88.4077 6.69225 89.1077 3.06905C89.4477 1.17953 88.1477 -0.174299 86.2177 0.127634ZM61.2077 35.4636C56.5777 35.4636 52.7777 31.7624 52.7777 27.2627C52.7877 22.7629 56.6077 19.0423 61.2177 19.0715C65.8277 19.091 69.6077 22.7726 69.6277 27.2627C69.6577 31.7332 65.8277 35.4636 61.2077 35.4636ZM7.70768 46.226C12.1677 45.3884 16.6277 44.541 21.0877 43.7034C21.4277 43.6352 21.6177 43.5086 21.7677 43.197C24.6677 37.3044 28.1577 31.7624 32.3577 26.6588C33.1377 25.714 33.9377 24.7985 34.7877 23.805C34.6477 23.8148 34.5877 23.805 34.5277 23.8148C30.8077 24.516 27.0977 25.2271 23.3777 25.9186C22.7077 26.0452 22.1077 26.2595 21.6077 26.7367C16.2677 31.928 10.9077 37.1193 5.56768 42.3106C4.76768 43.0898 4.61768 44.132 5.11768 45.0475C5.61768 45.9728 6.60768 46.4306 7.70768 46.226ZM60.1077 56.6379C55.3177 60.1539 50.1977 63.144 44.7777 65.6471C44.5077 65.7738 44.3777 65.9393 44.3277 66.2121C43.5077 70.3417 42.6677 74.4616 41.8577 78.5913C41.7577 79.1075 41.6477 79.6529 41.7177 80.1692C41.8477 81.0944 42.4377 81.7275 43.3877 81.9905C44.3577 82.2632 45.1477 81.9613 45.8377 81.2795C51.1277 76.1174 56.4177 70.9553 61.7177 65.7932C62.1677 65.355 62.4277 64.8582 62.5477 64.2544C63.0877 61.4883 63.6477 58.7222 64.2077 55.9463C64.3977 54.9724 64.5877 53.9984 64.8077 52.9173C64.5777 53.1023 64.4277 53.2192 64.2877 53.3361C62.8877 54.4464 61.5277 55.586 60.1077 56.6379ZM21.5477 69.0658C22.5377 67.8581 22.0277 66.027 20.5277 65.501C19.4577 65.1309 18.5677 65.4718 17.7977 66.2218C13.1977 70.7118 8.58768 75.1824 3.97768 79.6724C3.83768 79.8088 3.70768 79.9451 3.58768 80.0912C3.00768 80.812 2.87768 81.6106 3.25768 82.4385C3.65768 83.3151 4.38768 83.7729 5.26768 83.8216C6.17768 83.8313 6.78768 83.4612 7.32768 82.9353C11.9277 78.4452 16.5377 73.9747 21.1477 69.4846C21.2977 69.3483 21.4277 69.2119 21.5477 69.0658ZM17.5377 57.2709C17.6777 57.1346 17.8077 56.9982 17.9277 56.8521C18.6977 55.8976 18.5477 54.4854 17.5977 53.7062C16.5877 52.8783 15.2677 52.966 14.2477 53.9594C9.78768 58.2936 5.32768 62.6376 0.857684 66.9815C0.727684 67.0984 0.607684 67.2347 0.507684 67.3711C-0.0823163 68.1405 -0.152316 68.9684 0.267684 69.806C0.687684 70.6437 1.42768 71.0332 2.24768 71.0625C3.12768 71.0625 3.70768 70.7313 4.21768 70.2346C8.65769 65.9004 13.0977 61.5857 17.5377 57.2709ZM32.9577 68.9976C31.9077 68.6957 31.0877 69.0366 30.3477 69.7573C25.9177 74.0721 21.4877 78.377 17.0577 82.682C16.9477 82.7892 16.8377 82.9158 16.7277 83.0327C16.0977 83.7924 16.0077 84.6397 16.4277 85.4968C16.8477 86.3539 17.5977 86.7533 18.3977 86.7825C19.2877 86.7825 19.8677 86.4611 20.3677 85.9741C24.8277 81.6301 29.2877 77.2959 33.7477 72.952C33.8877 72.8156 34.0077 72.6793 34.1277 72.5332C35.1077 71.3254 34.4677 69.4359 32.9577 68.9976Z" fill="#FFB62C"/>
</svg>
