<svg width="1007" height="174" viewBox="0 0 1007 174" fill="none" xmlns="http://www.w3.org/2000/svg">
<g clip-path="url(#clip0_195_19)">
<path d="M87.2802 140.422C80.4826 140.422 73.685 139.126 67.1859 136.514C53.819 131.169 43.3327 120.935 37.6592 107.722C32.0033 94.5086 31.8277 79.8758 37.2026 66.5398C42.5599 53.2038 52.8178 42.7418 66.0618 37.0814C79.3058 31.4386 93.9725 31.2634 107.339 36.6258C120.706 41.9707 131.193 52.2049 136.866 65.4183C142.522 78.6316 142.698 93.2644 137.323 106.6C131.965 119.936 121.708 130.398 108.464 136.059C101.648 138.968 94.4643 140.422 87.2802 140.422ZM87.2627 34.4703C80.307 34.4703 73.3512 35.8723 66.7644 38.6937C53.942 44.1613 44.0353 54.2728 38.8361 67.1882C33.6369 80.1036 33.8125 94.2458 39.2752 107.039C44.7555 119.831 54.8905 129.715 67.8358 134.902C80.7812 140.089 94.9561 139.914 107.779 134.464C120.601 128.996 130.508 118.885 135.707 105.97C140.888 93.0541 140.73 78.912 135.268 66.1192C129.787 53.3265 119.652 43.4428 106.707 38.2556C100.419 35.7321 93.832 34.4703 87.2627 34.4703Z" fill="white"/>
<path d="M168.413 118.026C176.879 96.4012 176.633 74.601 167.693 53.1688H167.71L167.359 52.3626L167.008 51.5565H166.99C157.663 30.2995 142.03 15.0534 120.513 6.22114V6.20361L119.705 5.87065L118.897 5.53769V5.55521C97.222 -2.8915 75.3712 -2.64616 53.8893 6.29123V6.27371L53.0813 6.6242L52.2733 6.97468V6.99221C30.967 16.2976 15.6855 31.8767 6.83276 53.344H6.81519L6.48146 54.1501L6.14772 54.9738H6.16529C-2.30102 76.5988 -2.05511 98.399 6.88545 119.831H6.86789L7.21919 120.637L7.57049 121.443H7.58805C16.915 142.7 32.5479 157.947 54.0649 166.779V166.796L54.8729 167.129L55.6809 167.462V167.445C77.3561 175.892 99.2069 175.646 120.689 166.726V166.744L121.497 166.393L122.305 166.043V166.025C143.611 156.72 158.893 141.123 167.745 119.656H167.763L168.097 118.85L168.43 118.044L168.413 118.026ZM136.778 106.39C136.673 106.635 136.568 106.881 136.462 107.126L166.147 119.008C157.47 140.037 142.504 155.3 121.637 164.431L109.078 135.13C108.551 135.375 108.007 135.603 107.462 135.813L120.004 165.097C98.9785 173.841 77.5668 174.087 56.3308 165.815L68.2047 136.269C67.9237 136.164 67.6602 136.076 67.3792 135.971C67.0981 135.866 66.8346 135.743 66.5712 135.621L54.6973 165.167C33.6193 156.51 18.3202 141.579 9.1689 120.76L38.5199 108.248C38.274 107.722 38.0457 107.179 37.8349 106.635L8.50143 119.148C-0.263484 98.1712 -0.509394 76.8091 7.78126 55.6222L37.466 67.5037C37.5539 67.2583 37.6417 66.9954 37.7471 66.7501C37.87 66.4522 37.993 66.1718 38.1335 65.8739L8.44873 53.9924C17.1258 32.9632 32.0912 17.6996 52.9583 8.56939L65.5524 37.9577C66.0793 37.7123 66.6239 37.4845 67.1684 37.2742L54.5743 7.88595C75.5996 -0.858684 97.0112 -1.0865 118.247 7.18497L106.303 36.8712C106.584 36.9763 106.848 37.0639 107.129 37.1691C107.41 37.2742 107.673 37.3969 107.937 37.5196L119.881 7.83337C140.959 16.4904 156.258 31.4211 165.409 52.24L135.953 64.8049C136.199 65.3306 136.427 65.8739 136.638 66.4171L166.094 53.8522C174.859 74.8288 175.105 96.191 166.814 117.378L137.13 105.496C137.007 105.794 136.901 106.092 136.778 106.39Z" fill="white"/>
<path d="M107.287 114.486L87.2978 103.989L67.2913 114.486L71.1029 92.2655L54.9256 76.5287L77.2858 73.2867L87.2802 53.0812L97.2747 73.2867L119.635 76.5287L103.458 92.2655L107.287 114.486ZM87.2978 102.009L104.968 111.279L101.596 91.6522L115.894 77.7554L96.1505 74.8989L87.2978 57.0417L78.4626 74.8989L58.7196 77.7554L73.0175 91.6522L69.645 111.279L87.2978 102.009Z" fill="white"/>
<path d="M227.747 23.9733L249.212 14.9483C255.043 12.4949 258.784 7.16751 259.522 1.33192C259.066 1.33192 258.626 1.31439 258.17 1.31439C257.45 6.64178 254.007 11.4785 248.685 13.7216L227.22 22.7466C221.898 24.9897 216.031 24.0609 211.71 20.854C211.394 21.1694 211.078 21.5024 210.779 21.8354C215.487 25.3753 221.916 26.4092 227.747 23.9733Z" fill="white"/>
<path d="M221.16 25.5155C217.437 25.5155 213.713 24.3238 210.639 21.9931L210.446 21.8529L210.762 21.5024C211.025 21.222 211.271 20.9591 211.552 20.6787L211.693 20.5385L211.851 20.6437C216.26 23.9032 222.126 24.6217 227.15 22.5013L248.614 13.4763C253.638 11.3558 257.221 6.67682 257.959 1.24428L257.976 1.05151H258.17C258.521 1.05151 258.89 1.05151 259.241 1.06904H259.768L259.733 1.31438C258.96 7.44789 254.955 12.7227 249.282 15.106L227.817 24.131C225.692 25.0773 223.409 25.5155 221.16 25.5155ZM211.096 21.8003C215.891 25.3052 222.214 26.0587 227.659 23.7805L249.124 14.7555C254.569 12.4598 258.433 7.41284 259.276 1.54219H259.241C258.943 1.54219 258.662 1.52467 258.363 1.52467C257.537 7.0273 253.884 11.7589 248.772 13.9144L227.308 22.9394C222.197 25.0949 216.242 24.3939 211.728 21.1344C211.517 21.3447 211.306 21.5725 211.096 21.8003Z" fill="white"/>
<path d="M257.608 54.8511C257.695 55.0439 257.889 55.2366 258.293 55.0789L258.468 55.0088L263.896 51.872L264.88 54.2202C265.213 53.677 265.565 53.1162 265.916 52.5905L265.038 50.5051C264.862 50.102 264.563 49.9268 264.159 50.0845L264.001 50.1546L257.941 53.7646C257.608 53.9924 257.344 54.2202 257.555 54.7109L257.608 54.8511Z" fill="white"/>
<path d="M215.487 97.6104L206.441 76.1957C203.982 70.3776 198.642 66.645 192.775 65.9089C192.775 66.3646 192.758 66.8027 192.758 67.2583C198.098 67.9768 202.945 71.4116 205.194 76.7214L214.257 98.1361C216.506 103.446 215.575 109.299 212.36 113.61C212.676 113.926 213.01 114.241 213.344 114.539C216.91 109.842 217.946 103.428 215.487 97.6104Z" fill="white"/>
<path d="M213.379 114.872L213.01 114.521C212.747 114.276 212.483 114.031 212.22 113.768L212.079 113.628L212.185 113.47C215.452 109.071 216.172 103.218 214.047 98.2062L205.001 76.7915C202.875 71.7796 198.185 68.2046 192.74 67.4686L192.547 67.4511V67.2583C192.547 66.8903 192.547 66.5048 192.565 66.1367V65.6461L192.811 65.6811C198.958 66.4522 204.245 70.4477 206.652 76.1081L215.698 97.5228C218.087 103.183 217.261 109.755 213.52 114.679L213.379 114.872ZM212.659 113.593C212.87 113.803 213.08 113.996 213.309 114.206L213.326 114.223C216.839 109.439 217.595 103.131 215.311 97.698L206.265 76.2833C203.964 70.8508 198.906 66.9954 193.021 66.1543C193.021 66.4522 193.004 66.7676 193.004 67.0655C198.519 67.8716 203.262 71.5342 205.422 76.6338L214.468 98.031C216.611 103.148 215.926 109.089 212.659 113.593Z" fill="white"/>
<path d="M254.112 81.9612L244.855 60.0383L239.428 63.1752L239.252 63.2453C238.848 63.4205 238.655 63.2277 238.567 63.0174L238.497 62.8422C238.286 62.3515 238.55 62.1237 238.883 61.8959L244.943 58.2859L245.101 58.2158C245.505 58.0405 245.822 58.2333 245.98 58.6364L254.85 79.613L254.112 81.9612Z" fill="white"/>
<path d="M253.849 98.5392L252.883 98.4866C245.084 98.0836 238.356 93.3695 235.335 86.2196L228.502 70.0622C224.182 59.828 229.012 48.0166 239.252 43.6881L255.447 36.8712C262.315 33.9796 270.184 35.1012 275.981 39.7802L276.736 40.3935L276.051 41.077C267.602 49.5237 261.402 59.5651 257.625 70.9209C254.762 79.5604 253.48 88.5153 253.796 97.5403L253.849 98.5392ZM263.299 37.0639C260.875 37.0639 258.451 37.5371 256.15 38.5184L239.955 45.3354C230.593 49.2784 226.202 60.0733 230.136 69.4138L236.969 85.5712C239.604 91.8099 245.312 95.9982 252.04 96.6816C251.829 87.7793 253.164 78.947 255.974 70.4302C259.715 59.127 265.828 49.0856 274.119 40.6038C270.922 38.2556 267.145 37.0639 263.299 37.0639Z" fill="white"/>
<path d="M392.313 94.7014L386.341 121.321C384.725 128.558 387.272 135.743 392.384 140.44C392.7 140.019 393.016 139.581 393.314 139.161C388.695 134.832 386.411 128.278 387.887 121.671L393.859 95.0519C395.334 88.4452 400.217 83.4858 406.242 81.5406C406.154 81.0149 406.049 80.5067 405.944 79.981C399.304 82.0488 393.929 87.4814 392.313 94.7014Z" fill="white"/>
<path d="M268.076 94.9467L274.048 68.3273C275.664 61.0897 273.117 53.9048 268.006 49.2083C267.69 49.6288 267.374 50.0669 267.075 50.4875C271.695 54.816 273.978 61.3701 272.503 67.9768L266.531 94.5962C265.055 101.203 260.172 106.162 254.147 108.107C254.235 108.633 254.341 109.141 254.446 109.667C261.068 107.599 266.46 102.184 268.076 94.9467Z" fill="white"/>
<path d="M330.063 32.8581L356.744 38.8164C363.999 40.4286 371.2 37.8876 375.908 32.788C375.486 32.4726 375.047 32.1572 374.625 31.8593C370.287 36.4682 363.718 38.7463 357.096 37.2743L330.414 31.316C323.792 29.844 318.821 24.9722 316.872 18.9614C316.345 19.049 315.835 19.1541 315.309 19.2593C317.381 25.8659 322.826 31.2459 330.063 32.8581Z" fill="white"/>
<path d="M330.309 156.79L303.628 150.832C296.373 149.22 289.172 151.761 284.464 156.86C284.886 157.176 285.325 157.491 285.747 157.789C290.085 153.18 296.655 150.902 303.277 152.374L329.958 158.332C336.58 159.804 341.551 164.676 343.5 170.687C344.027 170.599 344.537 170.494 345.064 170.389C342.991 163.782 337.563 158.42 330.309 156.79Z" fill="white"/>
<path d="M330.133 172.72C322.018 172.72 313.78 171.458 305.683 168.777C285.887 162.24 269.833 148.413 260.453 129.82C251.091 111.227 249.528 90.1276 256.079 70.3777C269.604 29.5986 313.851 7.41282 354.707 20.889C395.58 34.3827 417.818 78.5089 404.31 119.288C393.473 151.971 362.892 172.72 330.133 172.72ZM330.239 18.6985C298.218 18.6985 268.322 38.9741 257.731 70.9209C251.337 90.2327 252.848 110.859 261.999 129.032C271.15 147.204 286.853 160.715 306.21 167.112C346.153 180.29 389.397 158.595 402.624 118.745C415.833 78.8945 394.087 35.7496 354.145 22.5538C346.223 19.9252 338.178 18.6985 330.239 18.6985Z" fill="white"/>
<path d="M338.951 130.819C337.317 130.819 335.666 130.644 334.033 130.276L311.585 125.264C299.57 122.583 291.965 110.649 294.652 98.6444L299.676 76.2483C300.976 70.4302 304.471 65.4884 309.512 62.2989C314.553 59.1095 320.525 58.0756 326.357 59.3724L348.805 64.3843C360.819 67.0655 368.425 78.9996 365.738 91.0038L360.714 113.4C359.414 119.218 355.919 124.16 350.878 127.349C347.259 129.645 343.131 130.819 338.951 130.819ZM321.439 60.5815C317.574 60.5815 313.78 61.6681 310.443 63.7885C305.806 66.7326 302.591 71.2889 301.38 76.6513L296.356 99.0474C293.879 110.105 300.87 121.093 311.954 123.564L334.402 128.576C339.759 129.768 345.274 128.821 349.929 125.877C354.566 122.933 357.781 118.377 358.993 113.014L364.016 90.6182C366.493 79.5604 359.502 68.5726 348.418 66.1017L325.97 61.0898C324.46 60.7393 322.949 60.5815 321.439 60.5815Z" fill="white"/>
<path d="M342.85 84.0641L323.318 109.071C323.195 109.264 322.738 109.369 322.475 109.317L321.86 109.176C321.439 109.089 321.298 108.738 321.368 108.423C321.404 108.265 321.491 108.108 321.597 107.95L340.813 83.6085C340.866 83.5384 340.883 83.4508 340.918 83.3632C340.953 83.2055 340.918 83.0127 340.655 82.9601L325.145 79.5078C324.688 79.4027 324.372 79.0697 324.46 78.6667L324.53 78.3337C324.618 77.9131 325.075 77.6327 325.531 77.7379L341.955 81.4005C342.903 81.6107 343.448 82.3468 343.254 83.2055C343.202 83.4858 343.096 83.7662 342.85 84.0641Z" fill="white"/>
<path d="M330.344 172.737C324.636 172.737 318.874 172.106 313.166 170.827C271.168 161.452 244.627 119.744 254.007 77.8255C258.556 57.5324 270.764 40.2008 288.364 29.0554C305.964 17.9099 326.866 14.2648 347.224 18.8036C367.564 23.3424 384.936 35.5218 396.107 53.0812C407.279 70.6405 410.932 91.4945 406.383 111.805C401.834 132.098 389.626 149.43 372.026 160.575C359.344 168.601 344.976 172.737 330.344 172.737ZM330.046 18.6634C315.73 18.6634 301.696 22.7116 289.312 30.5449C272.099 41.445 260.172 58.3735 255.728 78.2111C246.542 119.183 272.485 159.962 313.552 169.11C333.436 173.543 353.881 169.986 371.077 159.086C388.291 148.186 400.218 131.257 404.661 111.42C409.105 91.5821 405.54 71.1838 394.632 54.0275C383.706 36.8537 366.739 24.9547 346.855 20.521C341.252 19.2768 335.631 18.6634 330.046 18.6634Z" fill="white"/>
<path d="M258.521 133.378C231.91 133.378 207.583 117.448 197.132 92.7387C182.851 58.9693 198.783 19.9076 232.63 5.66038C257.959 -4.9944 287.749 1.17415 306.719 21.0292L307.685 22.0281L306.368 22.4662C283.375 29.9491 265.125 48.0692 257.537 70.9384L256.712 70.658L257.537 70.9384C250.845 91.1264 252.971 113.365 263.369 131.958L264.054 133.167L262.666 133.255C261.279 133.325 259.891 133.378 258.521 133.378ZM258.363 2.24314C249.897 2.24314 241.378 3.89042 233.333 7.27261C217.366 13.9844 204.983 26.5143 198.449 42.514C191.915 58.5137 192.038 76.1081 198.765 92.0377C209.269 116.905 234.211 132.659 261.173 131.555C251.126 112.786 249.194 90.5832 255.886 70.3601C263.492 47.4033 281.601 29.1254 304.506 21.222C292.14 8.86733 275.366 2.24314 258.363 2.24314Z" fill="white"/>
</g>
<g clip-path="url(#clip1_195_19)">
<path d="M905.045 0.088128C903.775 0.0352512 902.505 0 901.253 0C879.351 0 858.612 8.09015 842.476 23.019C825.546 38.6882 815.688 59.9447 814.736 82.8932C813.766 106.124 821.896 128.297 837.626 145.306C853.445 162.42 874.924 172.326 898.114 173.189C921.639 174.035 944.054 165.54 961.177 149.201C978.283 132.862 987.806 110.812 988 87.1057C988.37 40.2921 951.936 2.0622 905.045 0.088128ZM878.751 4.93517C893.706 0.88128 908.907 0.88128 923.897 4.93517L926.842 5.72832L924.514 7.68476C924.232 7.93152 924.108 8.03728 923.967 8.12541L918.924 11.3333C913.492 14.7879 908.043 18.2601 902.611 21.7147C902.294 21.9263 901.871 22.1025 901.359 22.1025C900.971 22.1025 900.53 21.9968 900.072 21.6971C894.499 18.1368 888.927 14.594 883.336 11.0513L878.804 8.17828C878.681 8.09015 878.557 8.00203 878.398 7.89627L875.612 5.81645L878.751 4.93517ZM933.808 78.5926L927.406 98.298C925.572 103.903 923.756 109.508 921.939 115.113C921.498 116.488 920.476 116.77 919.682 116.77C907.426 116.752 895.187 116.752 882.931 116.77C881.837 116.77 881.044 116.188 880.709 115.166C877.587 105.525 874.448 95.9009 871.327 86.2597L868.928 78.6455L869.775 77.9052L901.324 54.9919L933.808 78.5926ZM832.653 36.9961C836.974 31.0211 842.017 25.6629 847.661 21.045C853.886 15.9512 860.781 11.7739 868.188 8.61892C869.405 8.10778 870.657 7.61426 871.891 7.156C872.561 6.90924 873.443 6.99737 874.06 7.40275C878.945 10.4872 883.83 13.5893 888.715 16.6915L899.225 23.3716C900.001 23.8651 900.389 24.5701 900.389 25.5043C900.372 28.9765 900.372 32.4487 900.389 35.9386V41.6317C900.389 45.1039 900.389 48.5762 900.389 52.066C900.389 52.965 900.037 53.67 899.314 54.1987C889.138 61.5662 878.98 68.9514 868.823 76.3541C868.346 76.689 867.853 76.8653 867.324 76.8653C867.041 76.8653 866.759 76.8124 866.477 76.7243C858.012 74.0452 849.53 71.3837 841.047 68.7399C840.077 68.4402 839.496 67.8057 839.249 66.8011L832.318 39.0583C832.177 38.4767 832.177 37.6307 832.653 36.9961ZM816.57 83.9331C817.099 69.1629 821.032 55.8027 828.579 43.0594L830.555 39.7281L835.951 61.2666C836.445 63.2583 836.938 65.25 837.45 67.2417C837.697 68.1759 837.432 68.9866 836.692 69.6564C833.482 72.4941 830.272 75.3495 827.08 78.1872L816.447 87.6345L816.57 83.9331ZM833.747 137.726C829.761 132.527 826.375 126.781 823.677 120.665C820.52 113.509 818.404 106.089 817.399 98.6153C817.134 96.5707 816.94 94.5085 816.764 92.4992L816.641 91.1773C816.57 90.3489 817.029 89.6086 817.487 89.2032C820.132 86.8414 822.778 84.4795 825.44 82.1177L829.285 78.6983C832.159 76.1603 835.016 73.6045 837.873 71.0488C838.649 70.3438 839.513 70.1675 840.518 70.4848C848.877 73.1286 857.254 75.7372 865.613 78.3458C866.9 78.7512 867.235 79.7735 867.341 80.1084C871.309 92.3406 875.277 104.573 879.263 116.805C879.545 117.669 879.421 118.479 878.892 119.237C874.078 126.076 869.281 132.932 864.502 139.789C863.832 140.74 863.144 141.04 862.545 141.04C862.333 141.04 862.139 141.005 861.963 140.952L839.725 139.101C838.314 138.978 836.886 138.872 835.475 138.731C834.522 138.661 833.923 137.956 833.747 137.726ZM873.178 166.562C859.758 161.785 848.454 154.295 838.631 143.649L835.898 140.688L841.047 141.075C841.929 141.146 842.74 141.199 843.552 141.269L854.062 142.168C856.813 142.397 859.582 142.626 862.333 142.873C863.197 142.944 863.832 143.613 864.132 144.16C866.424 148.355 868.717 152.567 871.009 156.762L875.118 164.341L876.917 167.884L873.178 166.562ZM922.556 168.695C915.555 170.492 908.396 171.391 901.183 171.391C899.19 171.391 897.215 171.321 895.222 171.18C890.461 170.863 885.541 170.052 880.62 168.818C879.862 168.624 879.315 168.043 879.051 167.567C876.459 162.861 873.884 158.137 871.309 153.413L865.825 143.402C865.26 142.38 865.578 141.534 865.948 141.022C870.939 133.902 875.929 126.799 880.903 119.66C881.626 118.62 882.684 118.603 883.036 118.62H905.309C910.265 118.62 915.203 118.62 920.158 118.603H920.176C921.128 118.603 921.851 118.99 922.398 119.766C927.318 126.816 932.238 133.866 937.176 140.899C937.758 141.71 937.793 142.609 937.317 143.49C932.961 151.439 928.623 159.406 924.285 167.355C923.914 168.06 923.35 168.501 922.556 168.695ZM963.964 143.719C954.388 154.083 943.331 161.486 930.157 166.35L926.207 167.813L932.802 155.687C934.901 151.862 936.982 148.02 939.063 144.195C939.504 143.367 940.209 142.926 941.179 142.856C943.648 142.662 946.099 142.45 948.568 142.239L952.853 141.869C955.058 141.692 957.245 141.516 959.502 141.322L966.732 140.74L963.964 143.719ZM985.954 91.8294L985.919 92.2524C985.02 105.648 981.14 118.162 974.421 129.478C973.187 131.558 971.793 133.567 970.453 135.488C969.924 136.246 969.395 137.004 968.884 137.762C968.496 138.326 967.808 138.731 967.12 138.784C963.875 139.066 960.648 139.33 957.403 139.612L942.449 140.864C942.026 140.899 941.602 140.917 941.179 140.97C941.038 140.987 940.915 141.005 940.773 141.005C939.945 141.005 939.257 140.617 938.728 139.859C935.994 135.946 933.261 132.033 930.51 128.121L926.877 122.939C925.872 121.511 924.867 120.066 923.861 118.638C923.332 117.898 923.209 117.122 923.491 116.294C927.406 104.273 931.303 92.2348 935.201 80.1965C935.465 79.3681 936.03 78.8041 936.876 78.5397C945.517 75.843 954.158 73.1463 962.8 70.4143C963.681 70.1323 964.493 70.3086 965.198 70.9254L973.363 78.1872C977.296 81.6947 981.228 85.1846 985.161 88.6921C985.743 89.2032 985.954 89.9611 985.972 90.5075C986.025 90.9658 985.99 91.4064 985.954 91.8294ZM972.587 40.5213L974.474 43.7644C981.651 56.1552 985.461 69.11 986.078 83.3515L986.237 86.8061L983.362 84.55C983.239 84.4619 983.15 84.3914 983.08 84.3209L979.588 81.2188C975.268 77.3764 970.947 73.5517 966.626 69.7269C965.85 69.0395 965.586 68.1758 965.833 67.1712C967.297 61.3547 968.743 55.5207 970.189 49.7042L971.599 44.1521L972.587 40.5213ZM970.665 38.0184L970.929 38.5472L970.841 39.2346L968.108 50.1449C966.715 55.6969 965.321 61.249 963.928 66.8187C963.681 67.7705 963.082 68.405 962.147 68.7046C953.559 71.3837 944.971 74.0804 936.4 76.7948C936.1 76.8829 935.8 76.9358 935.501 76.9358C934.954 76.9358 934.425 76.7595 933.931 76.3894C923.738 68.9866 913.545 61.5839 903.334 54.1811C902.594 53.6347 902.223 52.9297 902.223 51.9955C902.241 43.1827 902.241 34.3699 902.223 25.5571C902.223 24.5701 902.629 23.8298 903.458 23.3011C911.799 18.0134 920.14 12.7257 928.482 7.42038C928.782 7.2265 929.61 6.69773 930.722 7.12075C939.821 10.5049 948.215 15.4048 955.693 21.6619C961.265 26.3327 966.186 31.6556 970.294 37.4368C970.453 37.6483 970.577 37.8598 970.665 38.0184Z" fill="#FFB62C"/>
<path d="M515.717 148.672C481.487 148.672 453.641 120.841 453.641 86.6299C453.641 52.4185 481.487 24.5877 515.717 24.5877C549.946 24.5877 577.792 52.4185 577.792 86.6299C577.792 120.841 549.946 148.672 515.717 148.672ZM515.717 26.3503C482.457 26.3503 455.405 53.388 455.405 86.6299C455.405 119.872 482.457 146.909 515.717 146.909C548.976 146.909 576.028 119.872 576.028 86.6299C576.028 53.388 548.976 26.3503 515.717 26.3503Z" fill="#FFB62C"/>
<path d="M515.769 141.287H515.717C512.154 141.287 508.574 140.934 505.118 140.265L505.453 138.537C508.821 139.189 512.26 139.524 515.717 139.524L515.769 141.287ZM526.439 140.229L526.104 138.502C529.49 137.832 532.823 136.81 536.032 135.488L536.702 137.11C533.387 138.484 529.948 139.542 526.439 140.229ZM494.854 137.162C491.557 135.805 488.382 134.096 485.402 132.122L486.372 130.659C489.246 132.58 492.333 134.219 495.524 135.541L494.854 137.162ZM546.137 132.051L545.149 130.588C548.024 128.667 550.704 126.446 553.156 123.996L554.408 125.248C551.886 127.786 549.1 130.077 546.137 132.051ZM477.114 125.336C474.574 122.815 472.282 120.03 470.306 117.069L471.77 116.082C473.692 118.955 475.914 121.634 478.366 124.084L477.114 125.336ZM561.215 116.981L559.751 115.994C561.673 113.121 563.313 110.054 564.636 106.864L566.259 107.534C564.901 110.83 563.19 114.002 561.215 116.981ZM465.228 107.64C463.852 104.344 462.794 100.907 462.106 97.3991L463.834 97.0466C464.504 100.431 465.527 103.78 466.868 106.952L465.228 107.64ZM569.362 97.2757L567.634 96.9408C568.304 93.5743 568.639 90.1021 568.639 86.6299V86.4007H570.403V86.6122C570.403 90.2078 570.05 93.8035 569.362 97.2757ZM461.03 86.7356V86.6299C461.03 83.0871 461.365 79.5444 462.053 76.0897L463.781 76.4246C463.129 79.7559 462.794 83.1929 462.794 86.6299L461.03 86.7356ZM567.599 76.0897C566.911 72.7056 565.888 69.3744 564.548 66.1841L566.17 65.4967C567.546 68.7927 568.604 72.2297 569.327 75.7372L567.599 76.0897ZM466.762 66.5014L465.139 65.8316C466.497 62.5356 468.19 59.3454 470.183 56.3843L471.647 57.3537C469.724 60.2267 468.084 63.3112 466.762 66.5014ZM559.61 57.0717C557.67 54.2164 555.448 51.5196 552.997 49.0873L554.231 47.8359C556.771 50.3563 559.063 53.1236 561.056 56.0847L559.61 57.0717ZM478.207 49.3164L476.955 48.065C479.477 45.5269 482.263 43.2356 485.208 41.2439L486.196 42.7245C483.339 44.6457 480.641 46.8665 478.207 49.3164ZM544.973 42.5306C542.081 40.6094 539.012 38.9878 535.82 37.6659L536.491 36.0444C539.788 37.4015 542.98 39.0936 545.961 41.0677L544.973 42.5306ZM495.33 37.8069L494.643 36.1854C497.94 34.8106 501.379 33.753 504.889 33.048L505.241 34.7753C501.855 35.4451 498.505 36.4674 495.33 37.8069ZM525.874 34.7048C522.559 34.0527 519.138 33.7354 515.717 33.7354L515.54 31.9728H515.717C519.226 31.9728 522.771 32.3077 526.192 32.9775L525.874 34.7048Z" fill="#FFB62C"/>
<path d="M515.717 106.476C504.765 106.476 495.842 97.5753 495.842 86.6122C495.842 75.6667 504.748 66.7657 515.717 66.7657C526.686 66.7657 535.591 75.6667 535.591 86.6122C535.591 97.5753 526.668 106.476 515.717 106.476ZM515.717 68.5283C505.735 68.5283 497.605 76.6361 497.605 86.6122C497.605 96.5883 505.718 104.714 515.717 104.714C525.716 104.714 533.828 96.5883 533.828 86.6122C533.828 76.6361 525.698 68.5283 515.717 68.5283Z" fill="#FFB62C"/>
<path d="M531.976 20.481C528.467 20.481 525.627 17.6256 525.627 14.1357C525.627 10.6283 528.484 7.79053 531.976 7.79053C535.468 7.79053 538.325 10.6459 538.325 14.1357C538.325 17.6432 535.485 20.481 531.976 20.481ZM531.976 9.53546C529.437 9.53546 527.391 11.5977 527.391 14.1181C527.391 16.6562 529.454 18.7008 531.976 18.7008C534.498 18.7008 536.561 16.6386 536.561 14.1181C536.561 11.5977 534.516 9.53546 531.976 9.53546Z" fill="#FFB62C"/>
<path d="M515.717 174C467.52 174 428.3 134.801 428.3 86.6298C428.3 38.4591 467.52 -0.740295 515.717 -0.740295C563.913 -0.740295 603.133 38.4591 603.133 86.6298C603.133 134.801 563.931 174 515.717 174ZM515.717 1.02227C468.49 1.02227 430.063 39.4285 430.063 86.6298C430.063 133.831 468.49 172.237 515.717 172.237C562.943 172.237 601.37 133.831 601.37 86.6298C601.37 39.4285 562.943 1.02227 515.717 1.02227Z" fill="#FFB62C"/>
<path d="M553.967 85.7485H534.71V87.5111H553.967V85.7485Z" fill="#FFB62C"/>
<path d="M496.741 85.7485H477.484V87.5111H496.741V85.7485Z" fill="#FFB62C"/>
<path d="M516.598 48.3999H514.835V67.6471H516.598V48.3999Z" fill="#FFB62C"/>
<path d="M516.598 105.595H514.835V124.842H516.598V105.595Z" fill="#FFB62C"/>
<path d="M600.911 67.8409H600.929L600.735 66.9773L600.541 66.1136H600.523C597.455 53.3703 592.2 42.5834 584.035 32.343L584.052 32.3253L583.506 31.6379L582.959 30.9505L582.941 30.9682C574.6 20.8687 565.148 13.4659 553.314 7.82575L553.332 7.80812L552.503 7.43799L551.71 7.06785V7.08547C539.841 1.67441 529.49 -0.634542 516.457 -0.72267V-0.740295H515.576H514.694V-0.72267C501.591 -0.599291 489.899 2.09743 478.048 7.73762L478.031 7.72L477.237 8.10776L476.443 8.49552L476.461 8.51315C464.734 14.3648 455.405 21.9086 447.24 32.1667L447.222 32.1491L446.675 32.8365L446.129 33.5239L446.146 33.5415C438.175 43.9406 433.097 54.8156 430.257 67.6118H430.24L430.063 68.4755L429.887 69.3391H429.905C427.295 82.1001 427.383 92.7107 430.222 105.436H430.204L430.398 106.3L430.592 107.164H430.61C433.678 119.907 438.934 130.694 447.099 140.934L447.081 140.952L447.628 141.639L448.174 142.327L448.192 142.309C456.533 152.409 465.986 159.811 477.819 165.452L477.801 165.469L478.595 165.839L479.388 166.209V166.192C491.239 171.603 501.609 173.912 514.641 174V174.018H515.523H516.404V174C529.507 173.877 541.217 171.18 553.05 165.54L553.068 165.557L553.861 165.17L554.655 164.782L554.637 164.764C566.364 158.912 575.693 151.369 583.858 141.111L583.876 141.128L584.423 140.441L584.969 139.753L584.952 139.736C592.923 129.337 598.002 118.462 600.841 105.665H600.858L601.035 104.802L601.211 103.938H601.194C603.839 91.1596 603.751 80.549 600.911 67.8409ZM599.518 103.568L575.746 98.5095C575.64 99.0911 575.499 99.6552 575.376 100.237L599.165 105.295C596.379 117.827 591.424 128.455 583.611 138.643L564.425 123.661C564.072 124.137 563.701 124.595 563.331 125.054L582.518 140.035C574.529 150.082 565.394 157.467 553.914 163.195L543.21 141.269C542.681 141.534 542.151 141.798 541.622 142.045L552.327 163.971C540.741 169.488 529.296 172.132 516.457 172.255V147.755C516.21 147.755 515.981 147.773 515.734 147.773C515.382 147.773 515.046 147.755 514.694 147.738V172.22C501.926 172.114 491.786 169.876 480.182 164.57L490.551 142.344C490.022 142.098 489.476 141.868 488.947 141.604L478.577 163.83C466.991 158.296 457.733 151.069 449.568 141.181L464.275 129.284L468.684 125.723C468.314 125.265 467.943 124.807 467.591 124.349L463.041 128.032L448.474 139.824C440.486 129.777 435.336 119.22 432.338 106.758L445.811 103.656L456.339 101.224C456.198 100.66 456.057 100.078 455.952 99.5142L431.897 105.031C429.111 92.5697 429.023 82.2058 431.598 69.6916L455.687 74.8031C455.793 74.2214 455.934 73.6574 456.057 73.0757L431.968 67.9643C434.754 55.4325 439.71 44.8043 447.522 34.6167L466.903 49.7571C467.256 49.2812 467.626 48.8229 467.996 48.3646L448.598 33.2243C456.586 23.1777 465.721 15.7925 477.202 10.0642L487.959 32.1138C488.488 31.8495 489 31.5851 489.546 31.3207L478.789 9.28868C490.375 3.77186 501.82 1.12802 514.658 1.00464V25.4866C515.011 25.4866 515.346 25.4514 515.699 25.4514C515.946 25.4514 516.175 25.469 516.422 25.469V1.02227C529.19 1.12802 539.312 3.36647 550.934 8.67178L540.617 30.7743C541.146 31.021 541.693 31.2502 542.222 31.4969L552.521 9.41205C564.107 14.9465 573.365 22.173 581.53 32.061L567.264 43.6057L562.608 47.3776C562.978 47.8359 563.349 48.2941 563.719 48.7524L568.481 44.8924L582.659 33.4181C590.648 43.4647 595.797 54.0048 598.795 66.4838L585.146 69.6387L575.111 71.9477C575.252 72.5117 575.376 73.0934 575.499 73.6574L599.183 68.1934C601.987 80.69 602.075 91.0539 599.518 103.568Z" fill="#FFB62C"/>
<path d="M669.282 173.965L667.554 172.59C666.725 171.938 665.896 171.286 665.103 170.633C656.215 163.354 648.984 156.022 643.024 148.267C638.086 141.816 634.894 136.052 632.972 130.13C630.997 124.014 630.644 118.867 631.896 113.932C634.418 103.938 644.435 96.7646 654.698 97.6106C660.412 98.0689 665.297 100.395 669.229 104.485C670.958 102.634 672.774 101.241 674.749 100.219C681.927 96.5178 689.051 96.5883 695.946 100.395C704.094 104.908 708.45 113.967 707.039 123.503C705.998 130.447 703.159 137.145 698.116 144.565C692.772 152.409 685.842 159.899 676.336 168.131C674.908 169.382 673.427 170.581 671.928 171.797L669.282 173.965ZM653.058 99.3027C644.17 99.3027 635.793 105.665 633.607 114.355C632.443 118.955 632.778 123.785 634.647 129.566C636.499 135.294 639.62 140.899 644.435 147.174C650.307 154.841 657.432 162.05 666.231 169.259C667.025 169.911 667.836 170.545 668.665 171.198L669.282 171.673L670.834 170.404C672.316 169.188 673.779 168.007 675.208 166.773C684.607 158.648 691.432 151.263 696.687 143.543C701.59 136.352 704.341 129.901 705.328 123.221C706.633 114.425 702.63 106.071 695.135 101.911C688.787 98.4037 682.226 98.3509 675.596 101.77C673.585 102.81 671.751 104.291 669.97 106.3L669.37 106.97L668.506 106.177C668.348 106.036 668.207 105.912 668.083 105.771C664.397 101.876 659.989 99.7785 654.592 99.3379C654.046 99.3379 653.552 99.3027 653.058 99.3027ZM783.363 173.612H745.748L747.211 172.114C751.461 167.778 754.953 162.949 757.634 157.749C748.728 164.359 739.787 164.042 730.987 156.797C724.462 151.422 722.276 141.586 725.767 133.408C729.224 125.318 737.089 120.383 745.624 120.753C743.843 116.364 743.561 111.887 744.831 107.41C746.259 102.387 749.187 98.4037 753.542 95.5836C761.037 90.7366 770.825 91.2125 777.896 96.7998C783.769 101.435 788.054 110.759 784.192 120.735C793.274 120.436 801.774 126.252 804.613 135.118C807.435 143.913 804.19 153.36 796.572 158.63C792.251 161.627 787.384 162.772 782.094 162.085C778.461 161.609 775.145 160.234 772.2 157.978C773.223 160.023 774.334 161.891 775.569 163.601C777.05 165.663 778.655 167.672 780.224 169.629C780.912 170.492 781.582 171.339 782.252 172.202L783.363 173.612ZM749.892 171.85H779.73C779.431 171.48 779.131 171.092 778.831 170.722C777.262 168.748 775.639 166.721 774.14 164.623C772.077 161.768 770.349 158.542 768.85 154.753L767.068 150.241L770.331 153.836C773.699 157.555 777.72 159.741 782.323 160.34C787.155 160.975 791.616 159.917 795.567 157.185C802.55 152.356 805.513 143.702 802.92 135.664C800.187 127.116 791.758 121.617 782.905 122.604L781.353 122.78L782.005 121.37C787.102 110.319 780.824 101.382 776.803 98.2099C770.331 93.0984 761.372 92.6402 754.512 97.0995C750.527 99.6728 747.846 103.321 746.541 107.939C745.254 112.451 745.695 116.981 747.829 121.405L748.534 122.85L746.929 122.657C738.588 121.67 730.74 126.287 727.39 134.131C724.198 141.604 726.191 150.576 732.116 155.458C741.127 162.878 750.351 162.367 759.521 153.924L762.554 151.14L760.931 154.929C758.286 161.063 754.583 166.756 749.892 171.85ZM764.794 80.8663L723.933 40.0101L764.794 -0.82843L805.654 40.0277L764.794 80.8663ZM726.42 40.0277L764.794 78.3811L803.15 40.0454L764.794 1.69203L726.42 40.0277ZM686.988 75.3318H651.277L652.741 73.8336C656.567 69.9208 659.618 65.7787 662.034 61.249C661.84 61.39 661.646 61.531 661.452 61.672C657.255 64.545 652.653 65.391 647.768 64.1572C641.754 62.659 637.363 59.8037 634.312 55.4325C631.667 51.643 630.679 47.3247 631.402 42.6363C632.284 36.908 634.859 31.4441 639.497 25.4337C645.845 17.2202 654.046 9.69406 665.35 1.70966C666.267 1.05751 667.254 0.370111 668.295 -0.229159C668.789 -0.528795 669.688 -0.599297 670.27 -0.211534C683.673 8.84803 692.772 17.0616 699.756 26.4031C703.388 31.2678 705.681 36.0091 706.792 40.909C708.714 49.3869 705.17 57.1246 697.304 61.6367C694.395 63.2935 691.15 64.2982 687.376 64.686C684.272 65.0032 681.221 64.2101 678.029 62.2536C677.483 61.9187 676.954 61.5486 676.424 61.1608C676.566 61.4428 676.724 61.7072 676.883 61.9892C677.782 63.5755 678.611 64.9503 679.422 66.1489C680.304 67.4356 681.274 68.7398 682.403 70.1146C683.108 70.9783 683.866 71.8067 684.625 72.6704L686.988 75.3318ZM655.404 73.5693H683.038C682.332 72.7937 681.662 72.0358 681.01 71.2427C679.846 69.815 678.84 68.4755 677.941 67.1535C677.095 65.9197 676.231 64.5097 675.314 62.8705C674.749 61.8659 674.238 60.8436 673.726 59.8213L671.293 55.0624L674.361 57.3713C674.873 57.7415 675.349 58.1292 675.843 58.517C676.883 59.3454 677.871 60.1209 678.929 60.7731C681.768 62.518 684.448 63.223 687.164 62.941C690.691 62.5885 693.707 61.6544 696.387 60.1209C703.653 55.9613 706.81 49.1049 705.046 41.3144C703.988 36.6612 701.784 32.1315 698.31 27.4783C691.45 18.2954 682.491 10.2052 669.247 1.26902C669.282 1.30427 669.159 1.30427 669.124 1.32189C668.171 1.88591 667.219 2.53806 666.337 3.17258C655.192 11.0512 647.097 18.4716 640.872 26.5265C636.428 32.2901 633.959 37.4896 633.131 42.9183C632.478 47.1485 633.36 51.0261 635.741 54.4455C638.544 58.4465 642.601 61.0727 648.191 62.4651C652.617 63.5755 656.638 62.8529 660.465 60.2267C661.276 59.6803 662.034 59.0281 662.828 58.3584C663.216 58.0235 663.604 57.6886 664.027 57.3713L666.849 55.0976L665.385 58.4112C662.934 63.9633 659.654 68.9337 655.404 73.5693Z" fill="#FFB62C"/>
</g>
<defs>
<clipPath id="clip0_195_19">
<rect width="409" height="173" fill="white"/>
</clipPath>
<clipPath id="clip1_195_19">
<rect width="560" height="174" fill="white" transform="translate(428)"/>
</clipPath>
</defs>
</svg>
